<svg xmlns="http://www.w3.org/2000/svg" width="256" height="256"><path fill="#1976D2" fill-opacity=".016" fill-rule="evenodd" d="M0 128.004v128.004l128.25-.254 128.25-.254.254-127.75L257.008 0H0zm.485.496c0 70.4.119 99.053.265 63.672s.146-92.98 0-128S.485 58.1.485 128.5"/><path fill="#1976D2" fill-opacity=".207" fill-rule="evenodd" d="M106.845 10.56C74.366 17.035 45.363 38.065 28.319 67.5c-3.497 6.039-9.324 19.035-9.307 20.759.007.682 1.523-2.219 3.37-6.448 6.507-14.906 15.242-27.441 26.561-38.119 44.381-41.866 114.294-41.881 158.095-.034 11.078 10.585 17.022 18.718 24.001 32.842 3.261 6.6 5.937 11.702 5.945 11.339.06-2.521-8.243-19.031-13.679-27.201-17.346-26.069-44.713-44.471-74.408-50.035-10.345-1.939-32.43-1.961-42.052-.043m19.719 4.337c-.344.556-.375 2.269-.069 3.807.541 2.719.509 2.707-1.151-.454-1.403-2.671-2.298-3.25-5.025-3.25H117v7.5c0 7.333.056 7.5 2.5 7.5 2.146 0 2.506-.461 2.54-3.25l.04-3.25 1.492 2.75c1.191 2.195 2.201 2.75 5.004 2.75h3.512l-.294-7.25c-.266-6.554-.501-7.279-2.45-7.557-1.185-.169-2.437.148-2.78.704m-25.767 2.783c-2.018.531-2.436 1.799-3.323 10.07-.43 4.007-.306 6.25.346 6.25 2.104 0 4.18-1.261 4.18-2.54 0-1.782 3.923-2.937 5.301-1.559 1.374 1.374 4.377 1.429 5.201.095.77-1.245-7.377-13.04-8.897-12.88-.608.064-1.871.318-2.808.564m50.071 4.55c-1.041 3.83-1.871 5.197-3.037 5.002-2.031-.339-3.336 2.831-1.615 3.923 1.996 1.266 6.42.988 7.639-.48 1.203-1.45 3.744-11.434 3.066-12.047-.232-.209-1.366-.669-2.521-1.024-1.847-.566-2.272-.01-3.532 4.626m12.644-.249c-.985 1.594-4.545 12.319-4.203 12.662.173.172 1.338.436 2.588.585 1.962.235 2.599-.617 4.642-6.198 1.776-4.852 2.067-6.661 1.165-7.234-1.669-1.061-3.471-.981-4.192.185m-78.262 1.05c-1.237.498-2.25 1.135-2.25 1.417C83 25.722 88.424 38 88.986 38c.348 0 1.428-.582 2.401-1.294 1.674-1.224 1.624-1.657-.915-8-1.477-3.688-2.749-6.677-2.828-6.643-.079.035-1.157.471-2.394.968m17.829 1.552c.048 1.165.285 1.402.604.605.289-.722.253-1.585-.079-1.917s-.568.258-.525 1.312m69.403 5.867-2.948 5.449 2.085 2.792c2.536 3.397 7.667 5.146 9.829 3.352 2.845-2.361 6.457-9.883 5.207-10.844-3.135-2.41-3.681-2.2-5.842 2.249-2.184 4.495-4.813 6.09-4.813 2.92 0-.898.976-3.211 2.168-5.14 2.101-3.4 2.111-3.551.309-4.868-1.023-.748-2.127-1.36-2.453-1.36s-1.921 2.452-3.542 5.45M68.99 31.512c-1.027 1.238-.83 2.313 1.086 5.925 4.349 8.198 4.16 8.095 9.348 5.055C81.941 41.017 84 39.389 84 38.874c0-1.519-3.038-2.236-4.267-1.007-1.794 1.794-2.378 1.414-5.18-3.367-2.857-4.876-3.645-5.299-5.563-2.988m48.042.638c-28.601 2.985-57.142 22.4-72.47 49.295-17.711 31.08-15.946 70.497 4.507 100.65 9.395 13.85 21.342 24.064 37.431 31.999 12.522 6.176 22.923 8.87 37 9.582 27.464 1.39 52.268-8.276 72.084-28.092s29.482-44.62 28.092-72.084c-.733-14.501-3.435-24.624-10.14-38-15.065-30.054-43.753-50.088-76.545-53.453-5.611-.576-10.493-.987-10.847-.914s-4.455.531-9.112 1.017m-58.004 6.316c-1.469 1.77-1.429 1.873 2.972 7.768 3.752 5.025 5.041 5.627 7 3.267 1.031-1.243.517-2.442-3-7-4.584-5.943-5.127-6.257-6.972-4.035m55.632 3.514c-32.844 5.973-58.891 28.305-68.731 58.93-13.154 40.935 5.251 85.008 43.571 104.335 10.664 5.379 21.168 7.962 34.573 8.501 26.736 1.077 47.025-6.727 65.485-25.188C206.876 171.241 215 151.744 215 127.5c0-39.227-24.638-71.868-62.703-83.071-9.72-2.86-28.616-4.09-37.637-2.449m73.014.426C187.113 43.87 189.87 47 191.722 47c2.243 0 2.082-2.899-.247-4.425-2.937-1.924-3.124-1.932-3.801-.169M116.5 44.715c-17.083 2.362-34.592 11.528-47.658 24.947-31.946 32.81-31.68 84.582.601 116.902 16.398 16.417 35.924 24.415 59.647 24.429 32.772.02 61.188-18.152 75.446-48.249 7.312-15.433 9.628-35.495 6.068-52.567-8.011-38.42-43.636-66.722-83.104-66.02-4.4.079-9.35.329-11 .558m-69.298 4.579c-3.276 3.338-3.947 4.561-3.015 5.493s1.683.745 3.371-.841l2.171-2.04.524 4.65c.289 2.558 1.155 5.28 1.925 6.05 1.2 1.2 2.03.757 5.815-3.099 3.394-3.458 4.142-4.772 3.235-5.679-.908-.908-1.609-.793-3.033.496C55.451 56.807 55 56.437 55 51.7c0-3.819-1.287-6.7-2.992-6.7-.325 0-2.488 1.932-4.806 4.294m153.82.184c-2.52 2.6-3.694 3.209-4.653 2.414-1.518-1.261-3.369-.357-3.369 1.644 0 2.015 4.553 4.741 6.752 4.043 1.018-.323 3.604-2.383 5.747-4.578 3.771-3.862 3.834-4.039 1.949-5.464-2.638-1.995-2.601-2.006-6.426 1.941M92.191 102.622c-19.947 28.949-36.138 52.745-35.979 52.88.158.134 32.353.567 71.545.961l71.256.716-12.256-19.587-12.257-19.588-13.603-.002c-7.482-.001-16.316-.286-19.632-.632l-6.028-.63-5.06 7.498-5.059 7.497 5.191.624c2.855.343 11.716.637 19.691.654l14.5.03 2.718 3.844c1.495 2.114 2.546 4.017 2.335 4.228-.665.668-81.357-.583-82.044-1.272-.57-.57 16.41-26.638 35.244-54.106l6.008-8.762 11.217 16.581c6.169 9.12 11.773 16.795 12.453 17.056s4.926.342 9.435.181l8.199-.293-20.043-30c-11.024-16.5-20.385-30.116-20.803-30.257s-17.08 23.429-37.028 52.379m115.185-43.288c-4.413 3.696-4.952 4.525-3.889 5.979 1.713 2.343 2.142 2.217 8.125-2.399 4.687-3.617 5.159-4.307 4.102-6-1.677-2.686-2.539-2.436-8.338 2.42m-172.92 6.093c-1.83 2.793-1.504 3.537 5.499 12.573 2.396 3.092 4.295 1.731 4.445-3.186.075-2.46.603-3.374 2.1-3.635 1.927-.335 4.5-2.787 4.5-4.287 0-.4-2.355-1.231-5.233-1.848-2.878-.618-6.216-1.37-7.419-1.671-1.607-.404-2.638.14-3.892 2.054m184.1-.517c-.309.5-.31 1.567-.002 2.371.376.978-.95 2.347-4.006 4.138-3.971 2.327-4.431 2.932-3.522 4.629 1.348 2.52 2.208 2.46 6.855-.473 3.277-2.069 4.045-2.221 5.23-1.036.834.833 1.92 1.06 2.718.567 1.05-.649.735-1.899-1.5-5.949-2.695-4.886-4.54-6.243-5.773-4.247M39 68.972c0 1.356 1.777 2.198 2.425 1.149.31-.501-.109-1.169-.931-1.485-.822-.315-1.494-.164-1.494.336m-14.562 16.15c-1.427 2.816-2.222 5.446-1.766 5.844 1.807 1.576 12.281 5.181 13.272 4.568 1.788-1.105 1.168-4.364-.959-5.039C32.382 89.669 33.411 88 36.524 88 38.615 88 41 85.581 41 83.461c0-.369-1.757-.504-3.905-.299-2.926.279-4.181-.07-5.008-1.395-2.082-3.333-4.882-2.105-7.649 3.355m199.805-2.965c-.684.684-1.243 2.503-1.243 4.043 0 3.335-1.723 3.77-2.18.55-.21-1.477-1.007-2.25-2.32-2.25-1.555 0-1.926.556-1.668 2.5.618 4.66 2.976 7.148 6.453 6.809 2.742-.268 3.31-.838 4.273-4.288 1.089-3.901 1.124-3.925 1.795-1.25.73 2.907 1.329 3.216 3.531 1.822 1.155-.731 1.072-1.517-.5-4.735-2.01-4.116-5.754-5.588-8.141-3.201M28 86.5c0 .825.45 1.5 1 1.5s1-.675 1-1.5-.45-1.5-1-1.5-1 .675-1 1.5M237.086 90c-.031.825.381 2.175.914 3 1.181 1.828 1.181.249 0-2.5-.567-1.319-.878-1.489-.914-.5M16.079 97.583c.048 1.165.285 1.402.604.605.289-.722.253-1.585-.079-1.917s-.568.258-.525 1.312m213.499.527c-5.414 1.284-6.578 2.525-6.578 7.012 0 4.701 3.046 8.321 6.337 7.533 1.189-.285 3.851-.824 5.913-1.198 3.753-.68 4.473-1.768 2.857-4.318-.646-1.019-2.147-1.184-5.984-.656-4.219.58-5.123.437-5.123-.81 0-.907 1.302-1.776 3.25-2.168 6.297-1.268 6.877-1.606 6.558-3.831-.36-2.516-1.854-2.84-7.23-1.564m10.032 1.39c.823 3.677 1.395 4.475 1.375 1.917-.009-1.055-.472-2.592-1.031-3.417-.741-1.095-.834-.691-.344 1.5m-219.486.851c-.617.743-1.4 3.381-1.74 5.862-.691 5.042-.85 4.928 8.767 6.314 4.004.577 4.722.413 5.157-1.178 2.342-8.561 1.334-11.817-3.441-11.116-1.625.238-3.187.059-3.47-.4-.802-1.297-4.03-.98-5.273.518m2.419 4.58c-.317.512-.118 1.213.441 1.559s1.016-.074 1.016-.931c0-1.757-.6-2.015-1.457-.628m218.536.652c.048 1.165.285 1.402.604.605.289-.722.253-1.585-.079-1.917s-.568.258-.525 1.312m-227 1c.048 1.165.285 1.402.604.605.289-.722.253-1.585-.079-1.917s-.568.258-.525 1.312M28 106.559c0 .857.45 1.281 1 .941s1-1.041 1-1.559-.45-.941-1-.941-1 .702-1 1.559m-13.921 43.024c.048 1.165.285 1.402.604.605.289-.722.253-1.585-.079-1.917s-.568.258-.525 1.312m227.079.417c0 1.375.227 1.938.504 1.25.278-.687.278-1.812 0-2.5-.277-.687-.504-.125-.504 1.25m-1.533 6.125c-.834 4.168-.026 4.976.875.875.38-1.729.482-3.351.227-3.606s-.751.974-1.102 2.731m-223.546 2.458c.048 1.165.285 1.402.604.605.289-.722.253-1.585-.079-1.917s-.568.258-.525 1.312m221.545 4.956c-.343.893-.595 2.15-.561 2.793.035.642.495.09 1.022-1.227s.779-2.574.56-2.793-.679.333-1.021 1.227M18.525 166.5c1.012 5.046 10.04 23.041 15.66 31.216 16.525 24.033 44.47 42.348 72.826 47.727 10.67 2.024 31.308 2.024 41.978 0 35.361-6.708 66.887-31.393 82.942-64.943 6.303-13.172 5.707-13.92-.796-1-7.344 14.589-13.424 22.766-25.049 33.686-33.043 31.039-82.328 39.215-124.722 20.689-27.463-12.002-49.323-35.049-61.031-64.346-1.325-3.316-2.139-4.679-1.808-3.029m46.867.017c-1.859 1.859-2.435 3.36-2.204 5.75.299 3.096.513 3.246 5.062 3.538 3.39.217 4.754-.069 4.764-1 .007-.718.285-2.317.616-3.555.531-1.981.231-2.25-2.513-2.25-1.715 0-3.117.45-3.117 1s.713 1 1.583 1c2.343 0 1.118 2.447-1.411 2.82-1.651.242-2.172-.193-2.172-1.816 0-4.008 1.84-6.004 5.535-6.004 1.906 0 3.465-.45 3.465-1s-1.595-1-3.545-1c-2.455 0-4.32.774-6.063 2.517m12.187-1.325c-.222.719-.892 2.838-1.491 4.707-.598 1.87-1.088 4.007-1.088 4.75 0 2.194 1.59 1.546 2.818-1.149.627-1.375 1.59-2.5 2.142-2.5s1.284 1.125 1.629 2.5c.481 1.914 1.277 2.5 3.397 2.5 1.523 0 3.329-.675 4.014-1.5s2.104-1.5 3.154-1.5 2.168.675 2.484 1.5c.317.825 1.239 1.5 2.048 1.5 1.099 0 1.326-.763.893-3l-1.158-6c-.319-1.65-.98-3-1.468-3-.489 0-2.78 2.506-5.092 5.569-3.494 4.626-4.36 5.291-5.123 3.928-.639-1.143-.409-2.203.76-3.494 2.858-3.159 1.564-5.461-3.266-5.811-2.849-.206-4.383.123-4.653 1m27.921-.468c-2.793.686-4.554 2.287-5.63 5.117-1.588 4.177-.237 6.159 4.197 6.159 2.163 0 3.933-.45 3.933-1s-1.35-1-3-1c-2.208 0-3-.469-3-1.777 0-3.221 2.922-6.223 6.057-6.223 1.619 0 2.943-.45 2.943-1 0-1.032-2.014-1.133-5.5-.276m6.012 4.883c-1.567 5.39-1.415 7.791.369 5.826.718-.791 3.119-9.163 3.119-10.876 0-.306-.418-.557-.929-.557s-1.663 2.523-2.559 5.607m6.048-2.673c-.963 1.064-1.82 3.426-1.905 5.25-.15 3.215-.025 3.325 4.095 3.623 2.515.182 4.25-.124 4.25-.75 0-.581-1.35-1.057-3-1.057q-3 0-3-1.5c0-1.048 1.056-1.5 3.5-1.5 1.925 0 3.5-.45 3.5-1s-1.377-1-3.059-1c-3.773 0-3.008-1.631 1.358-2.894l3.201-.926-3.595-.09c-2.37-.059-4.191.569-5.345 1.844m16.429 2.316c-.598 2.338-1.279 4.82-1.513 5.517-.32.951 1.318 1.231 6.568 1.123 3.847-.079 7.238-.537 7.534-1.017.949-1.534 5.288-.936 6.297.869 1.659 2.964 2.342.665 1.456-4.902-1.121-7.044-2.922-7.217-7.331-.705-2.876 4.249-3.556 4.795-3.813 3.069-.172-1.156.186-3.033.796-4.173 1.611-3.009.468-4.031-4.503-4.031-4.342 0-4.418.058-5.491 4.25m24.03.671c-1.381 5.758-.82 8.994.837 4.829 1.366-3.432 3.901-3.565 4.733-.25.345 1.375.954 2.5 1.353 2.5 1.513 0 1.952-1.33 1.016-3.078-.71-1.327-.574-2.038.507-2.643.813-.455 1.604-1.941 1.757-3.303.256-2.283-.083-2.499-4.36-2.776l-4.638-.3zm13.044-2.585c-1.716 4.512-2.352 9.664-1.193 9.664.6 0 1.374-1.125 1.719-2.5s1.265-2.5 2.044-2.5 1.844 1.125 2.367 2.5c1.083 2.848 5.664 3.539 6.638 1 .328-.855 1.82-1.5 3.469-1.5 1.905 0 2.893.512 2.893 1.5 0 .825.705 1.5 1.567 1.5 1.015 0 1.393-.617 1.073-1.75-.271-.963-.791-3.662-1.155-6-.377-2.423-1.207-4.25-1.931-4.25-.699 0-2.963 2.549-5.031 5.663-3.209 4.833-3.903 5.409-4.732 3.929-.704-1.259-.51-2.245.707-3.589 2.856-3.157 1.564-5.461-3.259-5.811-3.722-.269-4.359-.005-5.176 2.144m-91.362-.704c-1.406 1.406-.642 2.368 1.882 2.368 1.622 0 2.429-.465 2.167-1.25-.481-1.446-3.02-2.147-4.049-1.118M137 168c0 .55 1.125 1 2.5 1s2.5-.45 2.5-1-1.125-1-2.5-1-2.5.45-2.5 1m24 .57c0 1.042.729 1.462 2.172 1.25 3.201-.472 3.544-2.82.411-2.82-1.68 0-2.583.549-2.583 1.57m12.667-.903c-1.36 1.359-.595 2.333 1.833 2.333 1.556 0 2.5-.567 2.5-1.5 0-1.5-3.075-2.091-4.333-.833m-81.084 1.199c-.431.697-.513 1.537-.183 1.867.895.895 1.871-.421 1.387-1.871-.338-1.016-.574-1.016-1.204.004m56.96 1.065c-.683 1.105.894 2.299 1.818 1.375.95-.951.773-2.306-.302-2.306-.518 0-1.2.419-1.516.931m37.04-.065c-.431.697-.513 1.537-.183 1.867.895.895 1.871-.421 1.387-1.871-.338-1.016-.574-1.016-1.204.004M135.5 173c-.349.565.47 1 1.882 1 1.375 0 2.778-.45 3.118-1 .349-.565-.47-1-1.882-1-1.375 0-2.778.45-3.118 1m-96.679 13.111c-4.991 3.664-5.528 4.385-4.497 6.037 1.388 2.222 2.023 2.037 7.993-2.32 5.13-3.745 5.158-3.796 3.428-6.162-1.149-1.572-1.733-1.365-6.924 2.445m39.219-1.659c-.663.799-1.051 2.261-.862 3.25.393 2.066 4.524 2.996 6.137 1.383 1.445-1.445 4.685-1.388 4.685.082 0 .641.268.899.595.571.9-.899-.61-6.738-1.742-6.738-.545 0-.704 1.008-.355 2.25.451 1.604.358 1.852-.325.865-.773-1.118-1.184-.962-2.133.811-.771 1.439-1.927 2.088-3.358 1.885-3.119-.444-2.888-4.024.318-4.916 2.208-.614 2.251-.707.372-.795-1.17-.055-2.669.553-3.332 1.352m13.567.13c-.334.87-.6 2.332-.592 3.25.013 1.388.168 1.427.924.232.79-1.247 1.14-1.247 2.677 0 .972.79 1.449.905 1.06.255-.39-.649-.251-1.463.308-1.809S97 185.234 97 184.441c0-1.979-4.626-1.858-5.393.141m7.102 1.162c-.63 3.296-.148 4.266 2.1 4.226 1.536-.028 1.543-.117.075-.975-1.062-.621-1.451-1.811-1.134-3.47.266-1.389.258-2.525-.017-2.525s-.736 1.235-1.024 2.744m6.331-1.292c-1.596 1.922-.941 4.943 1.158 5.348 1.908.367 5.314-4.162 4.329-5.756-.936-1.514-4.086-1.28-5.487.408m7.627-.785C111.29 185.043 112.073 187 114 187c2.868 0 2.472 1.785-.512 2.305-2.313.404-2.294.429.241.317 3.521-.156 4.616-3.622 1.144-3.622-2.595 0-1.504-1.534 1.627-2.287 1.599-.385 1.483-.504-.583-.597-1.421-.064-2.884.184-3.25.551m11.373.785c-1.735 2.09-.87 4.998 1.59 5.35 1.436.206 2.281-.352 2.646-1.75.349-1.335.056-2.052-.838-2.052-.812 0-1.139.615-.8 1.5.365.95-.013 1.5-1.031 1.5-3.096 0-1.509-4.418 1.893-5.268 1.901-.475 1.895-.506-.128-.616-1.17-.064-2.669.537-3.332 1.336m7.657-.702c-.231.412-.714 2.1-1.072 3.75-.517 2.379-.432 2.637.411 1.25.585-.963 1.491-1.75 2.014-1.75s.97.787.995 1.75c.028 1.084.546.608 1.361-1.25 1.526-3.481 1.208-4.5-1.406-4.5-1.035 0-2.071.338-2.303.75m7.437 2.062c-2.671 3.751-2.7 4.555-.103 2.946 1.678-1.04 2.195-.998 2.984.242.751 1.181.954.968.954-1 0-4.643-1.484-5.49-3.835-2.188M93 185c0 .55.675 1 1.5 1s1.5-.45 1.5-1-.675-1-1.5-1-1.5.45-1.5 1m12.574.667c-.753 1.963.777 3.852 2.339 2.887 1.576-.974 1.335-4.554-.306-4.554-.766 0-1.681.75-2.033 1.667M132.5 185c-.34.55.084 1 .941 1s1.559-.45 1.559-1-.423-1-.941-1-1.219.45-1.559 1m13.003.991c-.795 2.504.117 4.043 2.306 3.893 1.525-.105 1.519-.161-.059-.573-2.027-.53-2.276-2.385-.55-4.111.854-.854.873-1.2.067-1.2-.623 0-1.417.896-1.764 1.991m10.104-.409c-1.164 3.034-.635 4.419 1.643 4.302 1.693-.087 1.817-.229.5-.573-2.501-.654-2.164-2.29.5-2.427 1.712-.088 1.829-.226.488-.576-.969-.253-1.505-.875-1.191-1.384s.143-.924-.381-.924-1.225.712-1.559 1.582m12.922.613c-.395 1.482-1.463 2.892-2.374 3.134-1.489.395-1.483.451.06.555 1.883.127 4.174-3.295 3.473-5.189-.243-.657-.764.018-1.159 1.5m3.031.423c-.362 1.44-.41 2.865-.109 3.167.302.301.549.023.549-.618 0-1.578 2.981-1.497 3.07.083.082 1.455 1.755-2.145 1.86-4 .038-.687-1.006-1.25-2.322-1.25-1.745 0-2.569.707-3.048 2.618m36.043-.461c-1.411 2.014-1.239 2.543 2.588 8 2.254 3.214 4.453 5.843 4.887 5.843 1.123 0 2.175-3.781 1.4-5.035-.908-1.469 1.386-3.965 3.644-3.965 1.777 0 2.039-.364 2.278-3.174.055-.646-2.375-1.752-5.4-2.458-7.37-1.72-7.657-1.696-9.397.789M173.5 186c.34.55 1.041 1 1.559 1s.941-.45.941-1-.702-1-1.559-1-1.281.45-.941 1m-21.421 1.583c.048 1.165.285 1.402.604.605.289-.722.253-1.585-.079-1.917s-.568.258-.525 1.312m58.921.888c0 1.015 2.92 2.467 3.4 1.691.318-.514-.317-1.169-1.411-1.455s-1.989-.392-1.989-.236m-160.915 12.17c-4.559 5.179-4.806 5.868-2.43 6.78 1.015.389 2.578-.231 4.036-1.601l2.381-2.236-1.493 3.574c-1.434 3.43-1.395 3.666.96 5.878 1.349 1.268 2.603 2.116 2.787 1.885s2.286-2.579 4.673-5.216c3.973-4.391 4.204-4.93 2.743-6.391s-1.812-1.352-4.166 1.295l-2.57 2.891 1.598-3.959c1.547-3.833 1.527-4.016-.614-5.75-1.216-.985-2.573-1.791-3.016-1.791-.442 0-2.642 2.088-4.889 4.641m142.232 2.222c-1.002 1.606-.492 2.525 3.689 6.643 4.582 4.513 4.947 4.683 6.565 3.065s1.443-1.988-3.141-6.642c-2.67-2.711-5.101-4.929-5.402-4.929s-1.071.838-1.711 1.863M72.511 217.681l-3.78 5.693 2.865 2.284c3.991 3.183 7.941 3.876 10.929 1.918 5.246-3.438 3.918-9.232-3.129-13.644l-3.105-1.944zm104.239-3.566c-5.173 3.86-2.763 9.706 3.439 8.343 2.947-.647 3.137-.556 1.919.912-.744.896-1.973 1.63-2.73 1.63-1.683 0-1.777 1.201-.217 2.761 1.601 1.601 6.73-1.48 7.488-4.499.936-3.73-.263-5.262-4.118-5.262-3.809 0-4.751-1.478-1.582-2.484 1.179-.374 1.729-1.191 1.393-2.067-.753-1.963-2.318-1.777-5.592.666m-100.029 6.78c-1.42 2.404-1.473 2.986-.313 3.431 2.343.899 4.929-1.69 4.147-4.152-.921-2.904-1.789-2.74-3.834.721m79.529 2.008c-2.338.844-4.25 2.095-4.25 2.779 0 2.822 4.271 12.429 5.348 12.029a652 652 0 0 1 4.934-1.782c2.5-.895 3.667-1.876 3.441-2.892-.188-.845-.99-1.37-1.782-1.165-.793.204-2.228.594-3.191.867-.963.272-1.75 0-1.75-.603 0-.604 1.145-1.385 2.544-1.736 3.53-.886 2.433-2.956-1.403-2.646-3.735.302-4.214-1.447-.641-2.343 2.345-.589 3.416-2.834 1.75-3.668-.412-.207-2.662.315-5 1.16m-56.693 3.32c-3.702 5.284-.465 11.777 5.87 11.777 3.86 0 7.573-3.658 7.573-7.461 0-5.738-10.162-9.001-13.443-4.316m4.656 1.965c-1.537 1.536-1.575 5.47-.061 6.406 1.499.927 4.006-2.526 3.636-5.008-.355-2.382-1.964-3.01-3.575-1.398m31.748 2.562-.039 3.75-1.413-3.25c-1.227-2.823-1.897-3.25-5.097-3.25h-3.684l.636 4.64c.35 2.551.636 5.701.636 7 0 1.693.565 2.36 2 2.36 1.637 0 2.008-.681 2.044-3.75l.044-3.75 1.896 3.586c1.662 3.145 2.271 3.53 4.956 3.136 2.911-.427 3.059-.674 3.046-5.085-.019-6.557-.895-9.137-3.103-9.137-1.502 0-1.891.758-1.922 3.75"/><path fill="#1976D2" fill-opacity=".658" fill-rule="evenodd" d="M112.659 10.03c-24.109 3.8-45.95 14.68-63.257 31.51-6.021 5.856-6.386 6.336-1.532 2.015 25.404-22.617 52.585-32.609 85.025-31.257 29.796 1.241 53.681 11.32 76.105 32.114l6.5 6.027-6-6.289c-15.331-16.071-36.521-27.844-59-32.78-8.452-1.856-29.776-2.611-37.841-1.34M117 22c0 6.863.051 7 2.588 7 2.471 0 2.561-.191 1.992-4.25l-.596-4.25 2.228 4.297c1.965 3.791 2.584 4.262 5.258 4 1.666-.163 2.917-.634 2.78-1.047S131 24.3 131 21c0-5.333-.222-6-2-6-1.637 0-2.008.681-2.044 3.75l-.044 3.75-1.98-3.75c-1.61-3.05-2.535-3.75-4.956-3.75H117zm-14.945-4.03c-2.568.624-3.388 2.651-4.358 10.78-.437 3.665-.249 4.25 1.363 4.25 1.028 0 2.351-.9 2.94-2 1.153-2.154 3.962-2.638 5.63-.97.59.59 1.904.697 3.07.25 1.94-.742 1.839-1.074-2.08-6.842-3.58-5.267-4.441-5.984-6.565-5.468m49.939 1.28c-.003.688-.474 2.938-1.047 5-.749 2.698-1.589 3.75-2.994 3.75-2.911 0-2.36 2.681.709 3.451 1.909.479 3.146.156 4.37-1.141 1.806-1.915 4.199-10.127 3.351-11.5-.8-1.294-4.382-.935-4.389.44m10.078 7.288c-2.567 6.86-2.584 8.095-.118 8.74 1.651.432 2.288-.496 4.12-6 1.796-5.397 1.932-6.66.796-7.379-2.289-1.451-2.65-1.102-4.798 4.639M102 23.878c0 1.22.638 2.122 1.5 2.122.825 0 1.5-.395 1.5-.878 0-.482-.675-1.437-1.5-2.122-1.253-1.04-1.5-.896-1.5.878m-17.642-.113c-1.373.884 3.366 13.244 5.069 13.22 3.143-.045 3.318-1.608.864-7.735-2.418-6.038-3.508-7.045-5.933-5.485m88.826 6.121c-4.043 7.193-1.8 12.114 5.522 12.114 2.92 0 3.532-.537 5.864-5.138 2.084-4.112 2.336-5.306 1.267-5.984-2.19-1.388-2.703-1.062-4.802 3.054-2.354 4.613-3.136 5.242-5.049 4.059-1.184-.731-1.037-1.555.887-4.979 2.344-4.17 2.28-7.012-.157-7.012-.741 0-2.331 1.749-3.532 3.886M69.587 31.313c-1.715 1.254-1.642 1.621 1.397 7.005C72.748 41.443 74.621 44 75.147 44s2.73-1.013 4.897-2.25c5.28-3.016 4.318-5.56-1.239-3.275-1.283.527-2.389-.419-4.552-3.894-2.559-4.112-3.046-4.453-4.666-3.268m43.602 1.77c-29.665 4.568-58.6 26.882-71.742 55.325-10.267 22.223-11.195 50.778-2.391 73.567 8.54 22.106 25.566 40.9 46.444 51.268 8.118 4.031 17.414 7.164 26.176 8.82 9.047 1.711 32.034.705 40.824-1.786 33.728-9.56 58.259-34.094 67.769-67.777 2.53-8.96 3.446-29.771 1.768-40.172-3.243-20.101-13.076-38.511-28.285-52.959-13.094-12.438-26.926-20.4-42.554-24.494-8.992-2.356-28.401-3.271-38.009-1.792m-53.741 5.331c-1.767 1.293-1.64 1.652 2.476 6.988 3.712 4.811 4.573 5.446 5.958 4.394.89-.676 1.74-1.292 1.888-1.367.149-.075-1.693-2.665-4.094-5.757-3.961-5.101-4.537-5.494-6.228-4.258m61.052 2.712C97.125 42.955 73.672 55.737 59.265 74.5c-33.943 44.205-18.452 108.138 31.991 132.036 51.455 24.378 113.417-7.847 123.224-64.084 3.772-21.625-.567-43.297-12.302-61.452-18.167-28.106-47.716-42.531-81.678-39.874m67.5 2.133c0 1.781 3.733 3.982 4.54 2.677.796-1.289-1.331-3.936-3.162-3.936-.758 0-1.378.567-1.378 1.259m-69 1.791c-44.506 4.854-77.554 46.069-72.948 90.975 4.517 44.044 43.49 77.456 87.1 74.67 45.922-2.933 80.895-41.557 78.5-86.695-1.193-22.502-8.254-38.457-24.152-54.579-18.485-18.745-42.325-27.227-68.5-24.371m-71.431 4.005c-2.668 2.953-3.446 4.468-2.686 5.228s1.62.571 2.97-.65c1.736-1.571 1.954-1.579 2.523-.094.343.893.624 2.883.624 4.42 0 1.538.706 3.382 1.568 4.098 1.344 1.115 2.119.668 5.415-3.128 4.155-4.785 3.888-8.035-.334-4.069l-2.378 2.234-.524-4.65c-.289-2.558-1.176-5.302-1.973-6.099-1.264-1.264-1.925-.92-5.205 2.71m154.394.483c-2.55 2.631-4.019 3.414-5.644 3.006-3.291-.826-3.688 1.021-.722 3.354 3.052 2.4 4.265 1.969 9.358-3.325 3.071-3.192 3.289-3.758 1.955-5.091-1.333-1.334-1.883-1.105-4.947 2.056m-75.612 2.724C125.169 54.043 108.677 78 89.703 105.5s-34.293 50.338-34.042 50.75c.48.788 143.339 1.083 143.339.296 0-.25-5.334-8.903-11.852-19.229-8.619-13.653-12.507-18.958-14.25-19.446-1.319-.37-10.579-.716-20.577-.771l-18.179-.1-4.571 7.334c-2.514 4.034-4.571 7.634-4.571 8s5.738.725 12.75.797 16.034.409 20.047.75c6.865.582 7.419.812 9.348 3.869l2.051 3.25-16.848-.138c-9.266-.075-27.748-.413-41.07-.75l-24.222-.612 20.457-30.402c11.252-16.721 20.643-30.588 20.871-30.815s5.475 7.041 11.662 16.152L151.295 111h19.709L150.34 80c-11.365-17.05-20.929-30.994-21.252-30.988s-1.555 1.47-2.737 3.25m-87.479.488c-1.243 1.586-1.208 1.621.378.378.962-.755 1.75-1.543 1.75-1.75 0-.823-.821-.294-2.128 1.372m169.353 6.449c-5.677 4.424-5.963 4.943-3.743 6.786 1.222 1.014 2.365.492 6.5-2.97 5.357-4.485 5.735-5.175 3.743-6.828-.946-.785-2.624-.008-6.5 3.012M34.504 65.634c-1.526 2.329-1.415 2.634 3.103 8.505 3.935 5.113 4.836 5.821 5.623 4.414.516-.921.676-2.355.357-3.186-.813-2.119 1.203-5.487 3.083-5.149 1.508.272 4.244-2.676 3.295-3.55-.256-.236-3.483-1.109-7.171-1.939l-6.707-1.511zm184.799-.842c-.769.489-.876 1.281-.298 2.215.678 1.099-.192 2.134-3.553 4.226-4.655 2.897-4.972 3.398-3.558 5.63.695 1.097 1.802.814 5.668-1.452 3.241-1.9 4.934-2.424 5.204-1.613.497 1.49 3.234 1.6 3.234.13 0-.904-4.882-9.958-5.345-9.913-.085.009-.694.358-1.352.777M38.991 69.489c.68.819 1.642 1.238 2.139.931 1.276-.789.055-2.42-1.811-2.42-1.272 0-1.333.278-.328 1.489M26.667 81.815c-2.223 2.457-4.128 8.152-3.041 9.093.481.416 3.317 1.74 6.303 2.943 4.247 1.711 5.605 1.911 6.235.918 1.342-2.114.942-3.508-1.164-4.059-3.026-.791-2.394-2.71.893-2.71C38.579 88 40 86.55 40 83.809c0-.59-1.522-.85-3.568-.611-2.7.315-3.803-.023-4.535-1.391-1.233-2.303-3.14-2.3-5.23.008m197.368 1.119c-.569 1.064-1.035 2.864-1.035 4 0 2.911-1.834 2.574-2.6-.478-.838-3.336-2.959-2.53-2.695 1.025.565 7.618 9.295 8.857 9.295 1.319 0-3.236 1.568-3.737 2.5-.8.801 2.524 3.5 2.628 3.5.135 0-2.651-3.795-7.135-6.037-7.135-1.041 0-2.358.87-2.928 1.934M27.431 86.112c-.378.611-.079 1.488.664 1.947 1.425.88 3.159-.839 2.28-2.261-.704-1.139-2.141-.986-2.944.314m202.168 12.412c-2.695.74-5.276 1.937-5.734 2.661-1.415 2.23-.955 6.482.956 8.842 1.647 2.034 2.361 2.181 7.5 1.539 5.151-.644 5.679-.936 5.679-3.138 0-2.649-.655-2.809-6.22-1.516-2.727.633-4.013.512-4.815-.454q-2.008-2.421 6.363-3.992c2.754-.516 3.639-1.111 3.232-2.17-.308-.803-.56-1.873-.56-2.378 0-1.111-.221-1.09-6.401.606M21.353 99.765c-1.548.992-3.707 9.289-2.676 10.281.907.873 12.445 3.165 13.023 2.587.199-.199.624-2.575.945-5.281.461-3.894.229-5.211-1.113-6.325-1.244-1.033-2.143-1.127-3.38-.354-1.237.772-2.023.69-2.958-.31-1.436-1.538-2.19-1.655-3.841-.598M22 105.5c0 .825.45 1.5 1 1.5s1-.675 1-1.5-.45-1.5-1-1.5-1 .675-1 1.5m5.667.167c-1.151 1.15-.729 2.333.833 2.333.825 0 1.5-.675 1.5-1.5 0-1.562-1.183-1.984-2.333-.833m38.562 59.002c-1.676.675-4.229 5.688-4.229 8.306 0 3.707 9.085 5.61 10.863 2.275.513-.963 1.091-2.875 1.285-4.25.278-1.978-.129-2.568-1.953-2.827-1.268-.179-2.996.247-3.84.948-1.371 1.137-1.344 1.414.246 2.576 1.663 1.216 1.635 1.303-.41 1.303-4.841 0-1.385-5.737 3.732-6.194 5.269-.471 5.192-2.823-.09-2.727-2.383.043-4.905.309-5.604.59m9.395 5.458c-.937 3.37-1.48 6.351-1.207 6.624 1.086 1.086 3.583-.809 3.583-2.72 0-2.888 2.66-2.522 3.411.469.495 1.975 1.26 2.5 3.639 2.5 1.756 0 3.253-.626 3.588-1.5.328-.855 1.82-1.5 3.469-1.5 1.905 0 2.893.512 2.893 1.5 0 .825.675 1.5 1.5 1.5 1.657 0 1.808-1.47.864-8.36-.862-6.291-3.112-6.121-7.94.599-3.673 5.112-6.2 5.401-2.877.33 2.582-3.941 1.309-5.569-4.352-5.569h-4.867zm25.831-3.672c-3.046 3.046-3.318 8.013-.521 9.51 2.926 1.566 7.066 1.293 7.066-.465 0-.933-.944-1.5-2.5-1.5-1.966 0-2.5-.508-2.5-2.378 0-2.786 1.555-4.295 4.922-4.776 4.049-.578 3.743-2.846-.384-2.846-2.52 0-4.379.75-6.083 2.455m9.361 3.55c-1.492 5.569-1.113 7.915 1.061 6.571.482-.298 1.374-2.517 1.982-4.93.608-2.414 1.386-5.121 1.73-6.017.442-1.152.07-1.629-1.27-1.629-1.47 0-2.255 1.344-3.503 6.005m6.639-3.55c-2.644 2.643-3.273 7.327-1.255 9.345 1.783 1.783 7.8 1.552 7.8-.3 0-.924-.938-1.5-2.441-1.5-3.992 0-3.913-1.85.093-2.188 4.617-.39 5.85-2.812 1.431-2.812-4.059 0-3.986-1.784.09-2.187 4.614-.455 4.92-2.813.365-2.813-2.52 0-4.379.75-6.083 2.455m17.068-1.205c-.983 2.967-2.512 9.353-2.517 10.511-.008 1.806 14 1.386 14.702-.441.711-1.855 5.292-1.699 5.292.18 0 1.048 1.056 1.5 3.5 1.5 1.925 0 3.5-.364 3.5-.809s.641-1.682 1.425-2.75c1.377-1.875 1.461-1.847 2.476.809 1.344 3.523 4.59 3.841 3.717.364-.379-1.509-.051-2.839.892-3.622.819-.68 1.49-2.251 1.49-3.489 0-1.723-.735-2.4-3.125-2.878-6.039-1.208-6.73-.89-7.886 3.625-1.854 7.244-2.217 7.44-3.373 1.824-.614-2.984-1.665-5.604-2.335-5.823-.671-.218-2.669 1.66-4.442 4.175-2.044 2.9-3.484 4.148-3.939 3.412-.394-.637-.237-1.927.35-2.866 1.962-3.143.214-4.972-4.75-4.972-2.763 0-4.726.493-4.977 1.25m35.572 4-1.726 6q-.504 1.75 1.157 1.75c.914 0 1.897-.9 2.184-2s1.115-2 1.839-2 1.602.9 1.951 2c.472 1.488 1.513 2 4.067 2 1.888 0 3.433-.45 3.433-1s1.35-1 3-1 3 .45 3 1 .717 1 1.594 1c1.346 0 1.484-.816.886-5.25-.39-2.887-.909-5.588-1.153-6-1.121-1.891-3.626-.338-6.975 4.323-2.651 3.691-3.872 4.712-4.479 3.75-.514-.814-.3-1.725.554-2.367 1.368-1.026 1.925-2.742 1.691-5.206-.076-.812-1.816-1.25-4.96-1.25-4.837 0-4.842.003-6.063 4.25M79 168c0 .55.873 1 1.941 1s2.219-.45 2.559-1c.351-.567-.49-1-1.941-1-1.407 0-2.559.45-2.559 1m58.5 0c-.34.55.309 1 1.441 1s2.059-.45 2.059-1-.648-1-1.441-1-1.719.45-2.059 1m23.973.044c-.325.526.336.956 1.468.956 2.415 0 2.658-.556.591-1.349-.807-.31-1.734-.133-2.059.393M174 169c0 .55.648 1 1.441 1s1.719-.45 2.059-1-.309-1-1.441-1-2.059.45-2.059 1m-81.5 1c-.34.55-.141 1 .441 1S94 170.55 94 170s-.198-1-.441-1-.719.45-1.059 1m43.5 3c0 .55.9 1 2 1s2-.45 2-1-.9-1-2-1-2 .45-2 1m-96.5 13.08c-5.757 4.352-5.97 4.649-4.566 6.341 1.085 1.307 1.963.966 6.672-2.589 4.311-3.255 5.189-4.374 4.286-5.463-1.528-1.841-1.786-1.772-6.392 1.711m37.458-1.002c-.612 1.143-.866 2.718-.566 3.5.68 1.772 6.708 1.894 8.533.172 1.06-1 1.417-1 1.783 0 .92 2.507 2.292 1.16 2.292-2.25 0-4.233-2.164-4.705-4.592-1-1.871 2.855-6.783 3.64-5.738.916.335-.871 1.558-1.967 2.719-2.436 1.941-.785 1.893-.858-.604-.917-1.769-.041-3.102.661-3.827 2.015m13.66 1.082c-.783 3.914-.056 4.8 1.861 2.267 1.323-1.75 1.46-1.766 1.489-.177.049 2.701 1.471 2.074 2.704-1.192 1.308-3.466.913-4.058-2.714-4.058-2.239 0-2.817.547-3.34 3.16m7.989-1.578C97.382 187.774 97.954 190 100 190c1.1 0 2-.45 2-1s-.499-1-1.108-1c-.683 0-.868-.96-.481-2.5.683-2.723-.818-3.487-1.804-.918m5.361 1.002c-.54 1.421-.728 2.996-.416 3.5 1.024 1.656 5.349.969 6.413-1.018 1.878-3.509 1.266-5.066-1.99-5.066-2.332 0-3.249.591-4.007 2.584m8.699-1.917c-1.383 1.382-.585 3.21 1.583 3.627 1.929.372 1.858.453-.5.57-1.513.075-2.75.615-2.75 1.199 0 1.865 6.449.622 6.815-1.313.229-1.211-.307-1.75-1.742-1.75-3.055 0-2.522-1.799.677-2.284 2.694-.408 2.688-.419-.333-.566-1.696-.083-3.384.15-3.75.517m10.291 1.411c-1.641 3.066-.453 5.112 2.751 4.739 2.167-.253 2.854-.977 3.379-3.567.62-3.058.492-3.25-2.179-3.25-1.851 0-3.226.723-3.951 2.078m7.672.172c-1.037 3.87-.804 5.139.712 3.881.738-.612 1.676-.78 2.084-.372.409.407 2.852.747 5.43.755l4.687.014-.381-3.264c-.476-4.078-2.194-4.172-4.513-.246-1.046 1.769-2.252 2.727-2.917 2.317-.83-.513-.812-.808.067-1.101.661-.221 1.201-1.263 1.201-2.317 0-2.965-5.564-2.674-6.37.333m15.57-1.05c-.66.66-1.2 2.235-1.2 3.5 0 1.871.513 2.278 2.75 2.184 1.692-.071 2.077-.292 1-.573-2.491-.651-2.279-4.311.25-4.311 1.1 0 2-.45 2-1 0-1.393-3.347-1.253-4.8.2m6.538-.517c-1.116 1.975-1.692 6.317-.837 6.317 1.024 0 2.6-5.832 1.794-6.638-.272-.272-.703-.128-.957.321m2.819 1.54c-2.035 2.905-1.969 3.486.55 4.834 1.524.816 2.41.826 3.2.036.791-.791.553-1.111-.857-1.156-1.626-.053-1.534-.242.55-1.136l2.5-1.072-2.5-.765c-2.391-.731-2.401-.769-.25-.864 2.746-.122 3.035-2.1.307-2.1-1.069 0-2.644 1-3.5 2.223m13.11-1.556c-.367.366-.667 1.533-.667 2.593 0 1.083-.872 2.155-1.989 2.447-1.094.286-1.742.919-1.441 1.407 1.352 2.187 4.226.085 5.378-3.934.849-2.958.28-4.074-1.281-2.513m2.508 2.583c-1.083 3.991-.329 5.681 1.45 3.248 1.203-1.645 1.376-1.659 1.954-.151.349.909 1.085 1.653 1.635 1.653s.762-.62.471-1.378-.054-1.853.526-2.433c1.676-1.676.086-4.189-2.651-4.189-1.976 0-2.688.684-3.385 3.25m-64.766-.874c-.847 2.208.28 3.335 1.808 1.807.902-.902.905-1.461.016-2.35-.89-.89-1.324-.761-1.824.543m101.467.996c-1.008 2.214-.709 3.088 2.61 7.609 3.817 5.199 6.215 6.07 5.764 2.093-.314-2.771 1.522-6.333 2.844-5.516 1.044.645 3.906-1.246 3.906-2.581 0-.428-2.363-1.312-5.25-1.965-2.887-.652-6.034-1.402-6.992-1.664q-1.741-.476-2.882 2.024m-34.063-.689c.721.289 1.584.253 1.916-.079s-.258-.568-1.312-.525c-1.165.048-1.402.285-.604.604m-49 2c.721.289 1.584.253 1.916-.079s-.258-.568-1.312-.525c-1.165.048-1.402.285-.604.604M211 188.878c0 .482.635 1.404 1.411 2.048 1.069.887 1.585.89 2.128.011.395-.638.097-1.553-.661-2.033-1.774-1.124-2.878-1.134-2.878-.026M50.235 200.967c-3.627 4.051-4.047 4.945-2.805 5.975 1.193.99 2.016.603 4.499-2.115l3.038-3.327-1.597 4.807c-1.513 4.555-1.499 4.88.267 6.218 1.024.776 2.162 1.426 2.528 1.443 1.228.059 8.809-9.202 8.26-10.09-1.01-1.633-3.27-.891-5.352 1.757-2.322 2.952-2.608 2.198-.959-2.531.934-2.681.829-3.51-.655-5.15-.973-1.075-2.037-1.908-2.364-1.852s-2.514 2.245-4.86 4.865m142.755 1.545c-1.162 1.401-.725 2.227 3.324 6.276 4.162 4.162 4.826 4.501 6.176 3.151 1.349-1.35.992-2.025-3.325-6.276-4.328-4.263-4.977-4.594-6.175-3.151m17.956 7.079c-13.751 14.331-34.221 25.951-55.461 31.485-7.872 2.051-11.278 2.339-27.485 2.324-16.079-.015-19.676-.322-27.485-2.341-20.589-5.325-36.605-14.125-53.579-29.441-2.51-2.265-1.204-.823 2.903 3.204 13.83 13.565 31.548 23.525 51.161 28.76 9.38 2.504 12.207 2.806 26.5 2.84s17.173-.261 27-2.756c20.15-5.115 40.397-16.75 54.969-31.588 3.282-3.343 5.733-6.078 5.446-6.078-.288 0-2.073 1.616-3.969 3.591m-33.961 5.131c-2.512 2.245-3.085 3.389-2.546 5.087.561 1.765 1.46 2.191 4.628 2.191 4.17 0 5.281 1.437 1.933 2.5-2.244.712-2.75 3.5-.635 3.5.751 0 2.551-.933 4-2.073 4.659-3.664 2.894-7.902-3.315-7.96l-3.55-.034 2.41-2.006c1.679-1.398 2.093-2.324 1.363-3.054-.729-.729-2.03-.168-4.288 1.849M72.647 218.25l-3.411 5.25 2.132 1.748c3.012 2.471 7.724 3.608 10.272 2.479 3.018-1.337 4.582-5.145 3.284-7.995-.943-2.069-6.628-6.732-8.207-6.732-.362 0-2.194 2.363-4.07 5.25m3.899 2.32c-1.279 1.952-1.439 2.937-.612 3.764 1.642 1.642 4.566-.51 4.566-3.36 0-3.295-1.93-3.493-3.954-.404m79.776 2.756c-1.748.646-3.445 1.446-3.772 1.779-.955.973 3.605 11.895 4.967 11.895.681 0 2.887-.689 4.901-1.53 4.229-1.767 3.917-3.687-.457-2.812-3.392.678-4.277-1.501-.961-2.368 3.391-.887 2.465-3.333-1-2.64-3.755.751-4.09-1.285-.44-2.673 1.408-.535 2.282-1.424 1.941-1.975-.744-1.204-1.102-1.182-5.179.324m-56.249 3.309c-2.722 3.46-2.617 5.912.382 8.91 4.763 4.764 11.545 1.834 11.545-4.988 0-6.379-7.941-8.99-11.927-3.922m2.761 2.831c-.985 2.162-.91 2.886.438 4.235 1.367 1.367 1.884 1.415 3.228.299 2.071-1.719 1.566-6.376-.739-6.813-1.094-.207-2.18.638-2.927 2.279M127 234.333c0 6.776.394 7.837 2.598 6.991.835-.32 1.42-2.012 1.446-4.181l.044-3.643 1.98 3.75c1.637 3.102 2.516 3.75 5.081 3.75 2.94 0 3.069-.162 2.476-3.125-.344-1.719-.625-4.644-.625-6.5 0-2.776-.378-3.375-2.128-3.375-1.922 0-2.066.386-1.488 4 .352 2.2.406 4 .12 4s-1.24-1.8-2.121-4c-1.35-3.375-2.052-4-4.492-4-2.884 0-2.891.016-2.891 6.333"/><path fill="#1976D2" fill-opacity=".971" fill-rule="evenodd" d="M118.183 15.865C116.344 17.032 117.661 29 119.629 29c.956 0 1.398-1.437 1.46-4.75l.089-4.75 2.161 4.73c1.808 3.957 2.611 4.733 4.911 4.75 2.74.02 2.75-.005 2.75-6.98 0-6.482-.158-7-2.136-7-1.96 0-2.084.375-1.512 4.552.731 5.336-.278 5.157-2.83-.504-1.79-3.969-3.637-4.896-6.339-3.183m-17.829 2.9c-.63.404-1.47 3.773-1.867 7.485-.612 5.739-.488 6.75.829 6.75.852 0 1.819-.851 2.15-1.892.748-2.356 4.676-3.532 6.034-1.806.893 1.134 4.5 1.222 4.5.109 0-.243-1.639-2.91-3.642-5.926-3.46-5.212-5.427-6.372-8.004-4.72m52.19.402c-.252.733-.841 2.908-1.31 4.833-.609 2.502-1.477 3.591-3.043 3.82-3.702.539-2.644 3.18 1.274 3.18 4.094 0 5.576-2.077 5.851-8.201.179-3.975-1.776-6.536-2.772-3.632m-50.512 4.552c-.024 2.457.323 3.082 1.468 2.643 1.877-.721 1.884-1.473.032-3.921-1.39-1.837-1.47-1.769-1.5 1.278m60.123 3.516c-1.181 3.283-1.897 6.373-1.592 6.867 1.386 2.243 3.414.478 5.002-4.352.95-2.888 1.911-5.753 2.137-6.369s-.446-1.342-1.494-1.616c-1.568-.41-2.285.558-4.053 5.47m-77.067-3.31c-1.186.75-1.049 1.751.853 6.234 2.739 6.456 3.19 6.996 4.943 5.913 1.123-.694.943-1.939-1.003-6.959-2.516-6.486-2.599-6.577-4.793-5.188m88.111 6.602c-2.817 5.798-2.767 6.881.436 9.4 4.33 3.407 6.954 2.726 10.322-2.677 2.573-4.128 2.772-4.939 1.525-6.19-.789-.793-1.576-1.243-1.75-1-.173.242-1.54 2.353-3.038 4.69s-3.18 4.25-3.74 4.25c-2.062 0-2.035-2.92.066-7.039 1.747-3.424 1.903-4.394.82-5.081-2.093-1.327-2.306-1.16-4.641 3.647m-103.99 1.149c-.946.38-.446 2.026 1.874 6.171 1.74 3.109 3.29 5.797 3.443 5.973.74.845 8.474-4.052 8.474-5.366 0-1.335-.334-1.333-2.956.023l-2.956 1.529-2.639-4.503c-2.673-4.561-2.935-4.752-5.24-3.827m-9.975 7.574c-.731.903.18 2.698 3.282 6.468 3.594 4.368 4.488 4.982 5.491 3.774.967-1.166.486-2.414-2.49-6.468-3.902-5.316-4.665-5.775-6.283-3.774m129.35 3.614c-.681 1.102 2.847 4.371 3.747 3.472 1.152-1.153.739-2.228-1.27-3.304-1.067-.57-2.181-.646-2.477-.168m-140.96 7.009c-2.093 2.143-3.375 4.163-2.848 4.488.526.326 1.762-.298 2.745-1.385C50.262 49.948 51 50.564 51 55.878c0 7.158 1.748 7.988 6.523 3.098 2.791-2.858 3.575-4.278 2.794-5.059s-1.533-.447-2.678 1.188c-2.016 2.879-2.611 2.247-3.458-3.674-.375-2.621-1.148-4.92-1.717-5.11-.569-.189-2.747 1.409-4.84 3.552m154.339-.335c-2.482 2.561-4.039 3.409-5.557 3.028-2.936-.737-3.721.429-1.753 2.603 2.581 2.852 5.594 2.187 9.853-2.175 3.48-3.564 3.746-4.171 2.408-5.509s-1.883-1.112-4.951 2.053m6.405 9.877c-4.112 3.408-4.945 4.59-4.188 5.943.875 1.563 1.146 1.542 3.633-.284 7.523-5.522 8.346-6.493 6.985-8.244-1.177-1.514-1.776-1.273-6.43 2.585M34.962 66.071c-.934 1.745-.517 2.928 2.647 7.522 3.965 5.758 6.09 6.505 5.59 1.966-.35-3.173 1.288-5.559 3.816-5.559 2.093 0 3.503-2.881 1.718-3.511-1.917-.677-10.093-2.437-11.448-2.465-.668-.013-1.713.908-2.323 2.047m184.516.86c.483 1.52-.354 2.498-3.932 4.595-2.501 1.465-4.546 3.085-4.546 3.6 0 2.19 3.336 1.917 7.112-.581 3.777-2.5 4.151-2.568 5.323-.965 2.549 3.487 2.628-.52.088-4.543-2.648-4.195-5.116-5.48-4.045-2.106M38.485 69.337c.954 1.455 2.135 2.398 2.624 2.095C42.281 70.708 42.26 68 41.082 68c-.505 0-1.686-.295-2.625-.655-1.595-.612-1.593-.483.028 1.992M25.652 83.75c-3.317 6.521-3.216 6.795 3.416 9.276 5.017 1.876 6.271 2.043 6.96.929 1.044-1.69.333-2.955-1.66-2.955-2.692 0-1.042-3.478 1.806-3.808 1.461-.17 2.924-1.005 3.251-1.856.488-1.273-.118-1.48-3.416-1.165-3.318.316-4.009.076-4.009-1.395 0-2.994-4.695-2.274-6.348.974m199.598-2.088c-.687.278-1.25 1.555-1.25 2.84 0 5.636-2.466 7.314-3.721 2.531-.535-2.037-1.175-2.721-2.041-2.183-2.489 1.544 1.771 9.15 5.125 9.15 1.515 0 3.637-3.543 3.637-6.071 0-3.579 1.727-3.865 2.589-.429.604 2.407 3.411 3.6 3.411 1.45 0-2.911-4.632-8.669-6.332-7.871-.092.043-.73.306-1.418.583M27.446 86.087c-.873 1.412 1.055 3.34 2.467 2.467.598-.37 1.087-1.32 1.087-2.113 0-1.684-2.574-1.94-3.554-.354m200.575 13.219c-4.401 1.511-5.901 5.107-3.869 9.277 1.191 2.445 1.995 2.901 4.965 2.818 6.002-.168 9.052-1.288 8.681-3.187-.251-1.281-1.088-1.609-3.317-1.296-6.547.916-7.981.663-7.981-1.408 0-1.586.965-2.167 4.75-2.859 3.687-.673 4.75-1.291 4.75-2.759q-.001-3.322-7.979-.586m-207.42 1.531c-.285.461-.939 2.714-1.455 5.007-1.04 4.628-1.763 4.054 7.61 6.043 4.826 1.024 4.928.941 5.834-4.727.943-5.893-1.682-8.925-4.921-5.686-1.3 1.299-1.542 1.299-2.04 0-.605-1.576-4.169-2.028-5.028-.637m1.559 3.403c-1.725 1.725-1.41 2.76.84 2.76 1.1 0 2-.648 2-1.441 0-2.019-1.461-2.698-2.84-1.319m5.507.427c-1.218 1.218-.689 3.333.833 3.333.833 0 1.5-.889 1.5-2 0-1.992-1.066-2.601-2.333-1.333M39 186.641c-2.475 1.942-4.623 3.653-4.774 3.802s.346.787 1.104 1.416c1.079.896 2.399.365 6.079-2.445 4.328-3.304 5.378-5.401 3.029-6.047-.516-.141-2.963 1.332-5.438 3.274m169-.141c-1.027 1.237-.583 2.46 2.544 7 2.084 3.025 4.115 5.5 4.515 5.5 1.209 0 1.848-2.693.872-3.669-1.127-1.127 1.635-5.331 3.503-5.331.727 0 1.829-.612 2.45-1.361.917-1.104.062-1.575-4.544-2.5-7.277-1.461-7.846-1.439-9.34.361m3.521 3.524c1.139 1.257 2.186 1.669 2.768 1.087 1.353-1.353-.061-3.111-2.503-3.111-2.041 0-2.048.053-.265 2.024M51.173 200.428c-2.295 2.49-4.173 4.912-4.173 5.383 0 2.282 1.673 1.929 4.684-.99 3.768-3.652 3.845-3.572 1.891 1.966-1.321 3.745-1.283 4.167.524 5.802 1.121 1.015 2.258 1.37 2.677.837.401-.509 2.28-2.614 4.175-4.678 2.582-2.812 3.159-4.038 2.303-4.894s-1.813-.343-3.822 2.045c-1.475 1.752-2.855 3.012-3.067 2.799-.213-.212.305-2.345 1.149-4.739 1.436-4.069 1.415-4.474-.316-6.205-1.803-1.803-1.963-1.732-6.025 2.674m141.259 2.682c-.382.618 1.357 3.153 3.923 5.718 3.631 3.632 4.867 4.35 5.831 3.386.963-.963.287-2.175-3.19-5.718-4.665-4.754-5.464-5.166-6.564-3.386M73.25 218.006c-1.787 2.734-3.25 5.208-3.25 5.497 0 1.187 6.685 4.49 9.095 4.493 3.23.005 5.905-2.827 5.905-6.252 0-1.784-1.169-3.562-3.728-5.671-2.05-1.69-3.963-3.065-4.25-3.055s-1.985 2.255-3.772 4.988m103.166-2.513c-2.079 2.079-2.309 2.839-1.383 4.568.829 1.549 1.894 1.994 4.204 1.757 3.678-.378 4.781 1.567 1.796 3.164-1.149.615-1.826 1.544-1.504 2.065.777 1.258 6.047-1.499 6.846-3.582.34-.886.145-2.493-.433-3.573-.853-1.595-1.696-1.841-4.496-1.316-2.719.51-3.446.321-3.446-.897 0-.849.907-1.832 2.015-2.184 1.108-.351 1.756-1.057 1.441-1.567-.943-1.525-2.404-1.071-5.04 1.565m-100.249 4.713c-2.337 3.69-2.024 4.794 1.357 4.794 3.102 0 4.966-3.216 3.476-6-1.48-2.765-2.477-2.516-4.833 1.206m80.171 3.427-4.163 1.475 2.163 5.945c1.189 3.27 2.445 5.946 2.79 5.946.345.001 2.258-.68 4.25-1.512 4.207-1.758 5.089-3.995.955-2.423-1.964.746-2.869.686-3.434-.227-.954-1.543-.223-2.837 1.601-2.837.76 0 1.703-.52 2.096-1.156.509-.823-.167-.98-2.35-.543-4.007.801-5.419-1.904-1.727-3.308 1.365-.519 2.481-1.405 2.481-1.968 0-.564-.113-.989-.25-.946s-2.123.743-4.412 1.554m-55.115 1.924c-1.666 1.167-2.223 2.557-2.223 5.551 0 3.652.313 4.125 3.656 5.522 3.405 1.422 3.835 1.394 6.25-.407 4.304-3.21 4.079-8.997-.429-11.052-3.387-1.543-4.592-1.479-7.254.386m2.291 2.428c-2.284 2.524-1.616 6.429 1.168 6.826 3.971.565 5.642-6.705 1.874-8.151-.752-.289-2.122.307-3.042 1.325M127 232.918c0 5.923.72 8.082 2.695 8.082 1.174 0 1.341-.83.805-4-.389-2.3-.278-4 .26-4 .515 0 1.644 1.8 2.508 4 1.268 3.227 2.07 4 4.152 4 2.509 0 2.58-.179 2.58-6.5 0-5.561-.257-6.5-1.776-6.5-1.47 0-1.711.691-1.395 4 .209 2.2.118 4-.204 4s-1.503-1.8-2.625-4c-1.552-3.043-2.634-4-4.52-4-2.304 0-2.48.35-2.48 4.918"/></svg>