<svg xmlns="http://www.w3.org/2000/svg" width="256" height="256"><path fill="#1976D2" fill-opacity=".016" fill-rule="evenodd" d="M0 128.004v128.004l128.25-.254 128.25-.254.254-127.75L257.008 0H0zm.485.496c0 70.4.119 99.053.265 63.672s.146-92.98 0-128S.485 58.1.485 128.5"/><path fill="#1976D2" fill-opacity=".45" fill-rule="evenodd" d="M117 1c0 .55-1.717 1-3.816 1C109.17 2 98.554 3.666 96 4.697c-1.975.797-2.838 1.057-7 2.109-9.431 2.385-26.089 11.139-37.406 19.656C29.791 42.871 12.596 68.046 5.465 94c-.076.275-.416 1.175-.756 2C3.675 98.512 2 109.133 2 113.184 2 115.283 1.55 117 1 117c-.609 0-1 4.5-1 11.5S.391 140 1 140c.55 0 1 1.717 1 3.816 0 4.051 1.675 14.672 2.709 17.184.755 1.831.717 1.699 1.722 6 1.222 5.231 7.224 18.506 12.434 27.5 6.842 11.812 21.588 27.802 35.311 38.29 13.242 10.122 37.752 20.03 54.798 22.154 10.834 1.35 28.203 1.351 39.052.003 7.677-.954 23.674-5.247 28.54-7.659 1.064-.527 5.534-2.707 9.934-4.844 7.62-3.701 19.863-11.449 22-13.921.55-.636 3.342-3.064 6.203-5.394 8.118-6.61 21.44-23.946 26.872-34.967 2.619-5.314 5.191-10.532 5.717-11.596 2.241-4.538 6.699-20.715 7.873-28.566 1.559-10.429 1.525-29.917-.069-40-1.116-7.061-5.711-23.305-7.796-27.566-10.783-22.029-13.828-26.668-25.8-39.312-13.214-13.955-26.564-23.373-43.261-30.52-4.312-1.845-9.393-3.723-11.29-4.172-4.265-1.01-4.129-.971-5.949-1.721C158.488 3.675 147.867 2 143.816 2 141.717 2 140 1.55 140 1c0-.609-4.5-1-11.5-1S117 .391 117 1M.382 128.5c.002 6.6.164 9.17.359 5.711.196-3.459.195-8.859-.003-12S.38 121.9.382 128.5"/><path fill="#1976D2" fill-opacity=".319" fill-rule="evenodd" d="M26.971 85.9c-8.499 1.717-13.548 9.156-13.363 19.687.136 7.725 3.052 13.292 8.594 16.406 3.255 1.83 5.108 2.157 10.344 1.823 7.029-.447 7.115-.484 7.609-3.248.315-1.766-.309-1.939-7.237-2-7.141-.064-7.734-.243-10.189-3.068-4.883-5.618-4.748-16.635.264-21.647 3.502-3.502 7.321-4.449 12.435-3.084C39.659 91.898 42 91.07 42 88.445c0-2.208-9.083-3.746-15.029-2.545m28.144.066c-5.64 1.394-9.995 6.651-11.092 13.393-1.051 6.459.06 14.592 2.502 18.32 3.844 5.867 14.37 7.913 22.267 4.329 7.17-3.254 10.908-14.346 8.164-24.227-1.07-3.854-4.954-9.175-7.814-10.705-2.63-1.407-10.35-2.018-14.027-1.11M82 104.393c0 15.891.216 18.476 1.59 19.003.875.336 2 .357 2.5.048.501-.309.91-6.862.91-14.562 0-13.276.938-16.995 2.496-9.9.835 3.801 8.27 22.031 9.677 23.726 2.499 3.011 3.925.73 10.448-16.708l4.302-11.5.038 14.143c.041 14.743.51 16.265 4.539 14.719 1.258-.483 1.5-3.542 1.5-18.969V86h-7.657l-3.815 9.75c-2.098 5.362-4.467 11.662-5.265 14-1.619 4.743-2.791 5.357-3.814 2-.783-2.566-6.989-18.861-8.76-23-.986-2.303-1.788-2.75-4.933-2.75H82zm44 0c0 15.891.216 18.476 1.59 19.003 2.763 1.06 3.41-.328 3.41-7.313v-6.798l6.181-.646c3.4-.355 7.156-1.285 8.347-2.065 3.436-2.252 4.926-6.98 3.875-12.294-1.244-6.291-5.001-8.28-15.637-8.28H126zm36.012-13.703c-1.174 2.646-3.183 7.51-4.464 10.81-7.632 19.656-7.905 20.543-6.69 21.758 2.021 2.021 4.519-.508 6.037-6.111l1.394-5.147h14.45l2.602 6c1.954 4.506 3.107 6 4.63 6 3.398 0 3.512.404-8.356-29.5-2.451-6.176-3.664-8.071-5.322-8.31-1.718-.248-2.572.65-4.281 4.5m22.216 14.06c.261 17.993.353 18.75 2.272 18.75 1.887 0 2.031-.847 2.541-15 .297-8.25.635-14.525.75-13.944s2.509 4.631 5.319 9c12.39 19.259 13.332 20.498 15.39 20.217 1.908-.26 2.013-1.135 2.272-19.023.265-18.241.217-18.75-1.75-18.75-1.937 0-2.022.613-2.022 14.658v14.659l-7.5-11.251c-4.125-6.188-7.5-11.478-7.5-11.754 0-.277-.931-1.81-2.068-3.408-1.484-2.083-2.903-2.904-5.022-2.904h-2.954zM215 86.878c0 .482.675 1.437 1.5 2.122s1.5 1.687 1.5 2.228 2.025 4.585 4.5 8.986c4.189 7.449 4.5 8.505 4.5 15.287 0 5.72.34 7.415 1.582 7.892 3.062 1.175 3.418.547 3.418-6.026 0-6.221.403-7.403 6.472-19L244.944 86h-2.961c-2.717 0-3.318.709-7.277 8.588-4.893 9.737-4.462 9.794-10.176-1.338-3.327-6.482-4.029-7.25-6.626-7.25-1.597 0-2.904.395-2.904.878M52.533 93.533c-2.7 2.701-3.558 4.41-3.639 7.25C48.527 113.654 52.028 119 60.823 119c3.67 0 4.943-.566 7.883-3.506l3.505-3.505-.368-8.115c-.356-7.844-.484-8.211-3.818-10.994-5.146-4.296-10.78-4.059-15.492.653m78.882-2.171c-.288.749-.386 4.004-.219 7.234l.304 5.873 4.5-.317c10.571-.745 12.469-10.866 2.473-13.183-5.401-1.252-6.449-1.194-7.058.393M165.21 96a352 352 0 0 1-2.591 6.372c-.891 2.13-1.619 4.042-1.619 4.25s2.25.378 5 .378 4.993-.112 4.983-.25c-.009-.138-1.093-3.175-2.409-6.75-2.235-6.072-2.456-6.335-3.364-4M64.701 147.632c-.385.386-.701 8.951-.701 19.035V185h10.5c10.485 0 10.5-.003 10.5-2.458 0-2.374-.265-2.468-7.75-2.75l-7.75-.292-.5-15.988c-.418-13.378-.753-16.036-2.049-16.285-.852-.163-1.864.019-2.25.405m29.614 1.442c-5.696 3.648-7.769 8.318-7.779 17.522-.008 7.324.256 8.443 2.779 11.751 3.738 4.9 7.475 6.653 14.185 6.653 6.762 0 10.227-1.646 14.086-6.691 2.658-3.475 2.914-4.511 2.914-11.809 0-9.179-2.129-13.872-7.918-17.45-4.56-2.818-13.849-2.806-18.267.024m38.205.213c-5.903 3.343-8.493 8.612-8.462 17.213.029 7.872 1.702 11.977 6.372 15.634 3.264 2.556 12.067 3.618 20.056 2.42l4.514-.677v-18.968l-6.75.295c-5.985.262-6.75.523-6.75 2.296 0 1.638.769 2.056 4.25 2.307l4.25.308v4.407c0 5.007-1.647 6.489-7.184 6.462-5.574-.028-11.105-3.867-12.674-8.798-1.886-5.93-.756-12.468 2.852-16.499 2.787-3.114 3.042-3.185 11.179-3.112 7.495.068 9.757-.546 9.812-2.664.038-1.459-5.616-2.91-11.282-2.895-4.57.013-7.251.61-10.183 2.271m34.198-.665c-1.53.835-3.976 3.321-5.434 5.526-2.298 3.472-2.652 5.045-2.652 11.772 0 8.963 1.819 13.109 7.422 16.912 2.986 2.026 4.406 2.292 10.633 1.987 5.977-.292 7.64-.769 9.882-2.835 8.812-8.121 8.35-25.688-.851-32.395-3.617-2.636-14.889-3.21-19-.967m-69.601 5.009c-4.569 3.2-6.314 11.519-4.093 19.516 1.731 6.232 8.786 9.213 15.331 6.478 4.48-1.872 6.645-6.279 6.645-13.528 0-9.541-3.544-14.097-10.966-14.097-2.624 0-5.586.698-6.917 1.631m72.191-.492c-1.206.613-2.942 2.97-3.858 5.238-3.406 8.43-1.085 18.145 5.028 21.046 4.379 2.078 7.341 1.985 11.169-.349 4.02-2.452 5.69-7.436 5.18-15.457-.517-8.12-2.999-10.851-10.26-11.288-2.787-.168-6.054.197-7.259.81"/><path fill="#1976D2" fill-opacity=".979" fill-rule="evenodd" d="M22.5 88.275c-5.451 3.056-7.969 8.33-7.985 16.725-.022 11.739 5.551 18.015 15.969 17.986 6.971-.019 9.516-.858 9.516-3.138 0-1.587-.334-1.739-1.934-.883-2.869 1.535-8.799 1.255-12.709-.6-6.435-3.053-9.05-12.748-5.565-20.627 3.214-7.266 6.374-8.569 18.107-7.464 3.362.317 3.81-2.054.617-3.268-4.542-1.727-11.68-1.161-16.016 1.269m29.353-.26C46.773 90.699 44 96.725 44 105.081c0 14.202 9.1 20.796 23.271 16.861 2.715-.754 4.534-2.201 6.5-5.171 2.411-3.643 2.729-5.071 2.729-12.266 0-7.012-.342-8.643-2.462-11.74-1.353-1.978-3.956-4.309-5.783-5.181-4.471-2.132-11.922-1.936-16.402.431m31.616-.795c-.286.744-.395 8.95-.244 18.234.202 12.415.606 16.991 1.525 17.297.965.321 1.25-3.186 1.25-15.368 0-9.563.36-15.409.914-14.833.503.523 2.554 5.225 4.558 10.45 7.036 18.349 7.864 20.082 9.441 19.778.922-.177 3.766-5.963 7.266-14.785 3.163-7.971 5.861-14.718 5.995-14.993s.488 6.25.785 14.5c.448 12.426.798 15 2.041 15 1.278 0 1.5-2.667 1.5-18v-18h-2.822c-2.69 0-3.074.631-8.216 13.5-2.968 7.425-5.41 14.063-5.429 14.75-.066 2.481-1.96 1.178-2.908-2-.533-1.787-2.988-8.425-5.455-14.75-3.994-10.241-4.77-11.535-7.084-11.817-1.509-.184-2.815.25-3.117 1.037M127 104.5c0 17.833.072 18.5 2 18.5 1.822 0 2-.667 2-7.5V108h5.352c9.913 0 15.173-6.204 12.403-14.63-1.044-3.174-2.012-4.106-5.755-5.539-2.475-.947-7.088-1.747-10.25-1.777L127 86zm37.311-17.25c-.514.688-3.117 6.875-5.786 13.75s-5.661 14.433-6.652 16.795c-1.575 3.758-1.612 4.368-.294 4.874 1.99.763 2.491.159 4.957-5.977l2.087-5.192h14.754l2.204 5.5c1.616 4.033 2.792 5.589 4.405 5.832 1.891.285 2.099.003 1.481-2-.396-1.283-1.348-3.566-2.115-5.074s-3.137-7.358-5.266-13C168.252 87.296 167.658 86 166.403 86c-.637 0-1.578.563-2.092 1.25M185 104.573c0 17.153.134 18.548 1.75 18.232 1.572-.306 1.75-1.839 1.75-15.074 0-8.103.115-14.732.256-14.732.141.001 3.669 5.288 7.84 11.751 11.994 18.584 11.723 18.236 14.154 18.243L213 123v-18.573c0-17.15-.134-18.548-1.75-18.238-1.558.299-1.78 1.971-2.028 15.26l-.278 14.923-9.984-15.186C185.182 80.23 185 80.274 185 104.573m31-18.264c0 .664 7.994 15.792 9.876 18.691.963 1.483 1.827 5.547 2.124 9.99.407 6.101.825 7.553 2.25 7.824 1.532.291 1.75-.542 1.75-6.693 0-6.285.431-7.848 4.09-14.823 2.25-4.289 4.987-9.261 6.082-11.048 1.729-2.822 1.789-3.328.457-3.839-2.34-.898-2.962-.159-7.607 9.045-2.371 4.699-4.585 8.544-4.919 8.544-.335 0-2.671-3.937-5.192-8.75-3.344-6.385-5.168-8.836-6.747-9.07-1.19-.175-2.164-.117-2.164.129M56.094 90.295c-4.7 1.662-7.096 5.322-7.772 11.87C47.22 112.848 52.281 120 60.944 120c8.908 0 14.439-11.208 10.915-22.114-2.202-6.816-8.874-10.028-15.765-7.591M131 97.376V105h3.435c3.975 0 8.688-1.596 9.779-3.313 1.22-1.917.897-7.153-.564-9.151-.945-1.292-3.047-1.987-7-2.315l-5.65-.469zm34.707-4.712c-1.408 2.279-5.396 14.314-4.905 14.805.747.747 9.731.665 10.492-.096.345-.345-.084-2.257-.952-4.25-.869-1.993-2.128-5.387-2.797-7.542-.67-2.156-1.497-3.468-1.838-2.917M65 166v18h10c8.222 0 10-.267 10-1.5 0-1.208-1.553-1.5-7.981-1.5-9.709 0-9.249.98-8.824-18.79.279-12.987.154-14.213-1.445-14.212C65.148 148 65 149.524 65 166m30.5-17.106c-6.904 3.003-10.589 16.326-7.194 26.011 3.983 11.363 20.775 13.411 28.365 3.459 5.241-6.87 4.034-21.535-2.259-27.447-2.116-1.988-3.735-2.427-9.725-2.639-3.953-.139-8.087.138-9.187.616m37.52.858c-5.851 2.939-8.02 7.308-8.018 16.146.002 9.782 1.897 13.795 7.96 16.852 4.88 2.461 11.183 2.893 17.326 1.187l3.788-1.052-.288-8.693-.288-8.692H148c-4.222 0-5.5.348-5.5 1.5 0 1.015 1.228 1.601 3.798 1.813l3.798.313-.298 5.687-.298 5.687-5.706.299c-7.46.39-11.351-1.609-13.851-7.115-2.406-5.3-2.4-9.08.021-14.413 2.69-5.926 7.122-8.516 13.536-7.91 2.75.26 5.951.771 7.112 1.136 1.592.501 2.241.173 2.634-1.33.653-2.497-1.422-3.135-10.246-3.152-4.216-.008-7.723.603-9.98 1.737m34.98-1.093c-5.328 2.139-9 9.148-9 17.179 0 13.183 7.939 20.732 19.782 18.81 7.659-1.243 12.223-6.81 12.935-15.778.645-8.119-.875-13.689-4.749-17.401-2.74-2.625-3.825-2.96-10.266-3.174-3.961-.131-7.877.032-8.702.364m-71.486 4.509c-5.382 4.233-7.022 13.023-3.89 20.85 1.881 4.702 5.517 6.989 11.076 6.967 8.608-.033 12.622-5.47 12.07-16.348-.327-6.446-.572-7.068-4.044-10.25-4.592-4.207-10.782-4.704-15.212-1.219m71.142 1.12c-6.345 5.985-6.373 17.703-.055 23.577 3.367 3.129 3.996 3.333 8.994 2.919 6.495-.539 8.822-2.411 10.302-8.288 2.233-8.87.308-16.762-4.831-19.798-4.815-2.844-10.357-2.233-14.41 1.59"/></svg>