<svg xmlns="http://www.w3.org/2000/svg" width="256" height="256"><path fill="#1976D2" fill-opacity=".016" fill-rule="evenodd" d="M0 128.004v128.004l128.25-.254 128.25-.254.254-127.75L257.008 0H0zm.485.496c0 70.4.119 99.053.265 63.672s.146-92.98 0-128S.485 58.1.485 128.5"/><path fill="#1976D2" fill-opacity=".115" fill-rule="evenodd" d="M98 53.639c-1.375.202-5.875.846-10 1.431-15.523 2.201-40.837 10.592-51.279 16.997-7.216 4.426-19.788 15.041-24.532 20.712-5.348 6.394-7.706 10.82-10.281 19.297-1.862 6.13-2.103 8.774-1.67 18.295.77 16.916 4.929 25.685 18.45 38.9 8.601 8.407 8.136 8.088 23.562 16.158 10.749 5.624 15.141 7.277 28 10.538 8.387 2.128 19.62 4.355 24.961 4.951 10.76 1.199 28.999 1.426 36.124.45 4.256-.584 4.783-.981 6.782-5.109 2.667-5.51 6.444-9.346 17.113-17.38 8.644-6.509 20.15-12.444 25.27-13.033l3-.346.285 10.25c.227 8.16.581 10.25 1.736 10.25 1.818 0 17.668-9.446 19.796-11.798 1.005-1.11 1.686-4.088 1.879-8.221l.304-6.481 13.5-.296c11.886-.26 25.954.798 32.75 2.462 2.007.491 2.25.176 2.25-2.922 0-3.172-.367-3.608-4.25-5.041-3.709-1.37-28.221-8.427-40.5-11.661-3.778-.995-4.25-1.444-4.25-4.049v-2.93l11.75-.281 11.75-.282.303-6.469c.559-11.907 2.475-10.951-22.567-11.262L186.5 116.5l-.277-13.605c-.229-11.219-.01-13.827 1.25-14.872 2.309-1.917 1.84-3.726-1.223-4.715-3.281-1.059-7.25-.583-7.25.87 0 .609-1.035.779-2.5.411-1.375-.345-2.5-.281-2.5.142s-5.4.905-12 1.07l-12 .302V83.52c0-2.626-.337-2.877-5.321-3.973-4.121-.907-2.779-2.766 2.884-3.998 6.703-1.458 8.513-1.028 12.836 3.05 2.859 2.696 4.216 3.339 5.906 2.795 3.995-1.284 18.136-4.587 21.695-5.067 4.06-.548 34.089 3.678 51.381 7.232C256.048 86.984 256 86.989 256 81.583v-4.417l-5.25-1.143c-9.964-2.169-34.304-5.936-51.75-8.009-13.176-1.566-20.095-2.932-28-5.528-22.061-7.246-31.296-8.274-39.5-4.399-5.591 2.641-12.336 9.055-14.817 14.09-1.63 3.307-1.638 3.274-1.66-6.727-.015-6.455-.452-10.479-1.223-11.25-1.125-1.125-9.845-1.435-15.8-.561m35 5.438c-8.364 3.778-14.433 11.424-17.969 22.64-1.049 3.326-1.108 6.404-.28 14.585 1.178 11.649 3.688 17.889 9.676 24.055l3.538 3.643h33.92l.308-4.178.307-4.178 11-.072 11-.072.278-13.75.278-13.75H152v14.134l7.25-.24 7.25-.24.309 4.203c.301 4.095.197 4.253-4.043 6.128-6.831 3.022-12.144 3.524-17.13 1.62-8.184-3.126-10.648-8.117-10.614-21.504.025-9.67 1.941-15.353 6.344-18.817 6.503-5.115 17.717-3.319 21.501 3.444.824 1.471 1.737 1.5 9.458.299 11.083-1.724 11.532-2.017 9.507-6.218-1.908-3.958-7.467-6.339-25.343-10.854-13.762-3.475-17.436-3.613-23.489-.878m14.2 46.123c-.66.66-1.2 1.763-1.2 2.45s-.774 1.684-1.721 2.214c-2.538 1.42 4.461 2.546 11.388 1.831 6.284-.649 8.333-1.956 8.333-5.317 0-2.301-.254-2.378-7.8-2.378-4.733 0-8.272.472-9 1.2M164 126v8h22v25c0 13.75.311 25 .692 25 .921 0 13.166-7.434 16.22-9.847 2.383-1.883 2.415-2.139 2.621-20.78l.207-18.873 11.63-.282 11.63-.281V118h-65zm-49.46 31.25c-.422 16.637-.699 30.7-.616 31.25s.402 3.363.71 6.25l.559 5.25 8.154-.014c13.564-.022 12.557 1.256 12.878-16.346l.275-15.14 13.75-.278 13.75-.278V154h-28.091l.295-6.75.296-6.75 13.677.176c15.583.2 17.823-.151 17.823-2.793 0-1.426-.729-1.883-3-1.883-2.889 0-3-.167-3-4.5V127h-46.692z"/><path fill="#1976D2" fill-opacity=".649" fill-rule="evenodd" d="M85.5 55.953c-5.5.983-12.7 2.574-16 3.533-9.141 2.658-28.402 10.428-32.951 13.292C24.731 80.221 10.853 93.605 6.767 101.5 3.422 107.965.031 120.097.015 125.662c-.026 8.832 2.649 19.902 6.669 27.607 6.069 11.632 17.382 21.882 33.716 30.551 14.118 7.492 14.402 7.601 31.6 12.075 11.115 2.891 20.834 4.407 35.5 5.537l7 .539-.336-5.735c-.333-5.701-.369-5.761-6-9.839a61968 61968 0 0 0-43.497-31.39C43.858 140 27.245 127.446 27.748 127.111s20.116-14.089 43.584-30.562L114 66.599V54l-9.25.082c-5.088.045-13.75.887-19.25 1.871M181 66.31c0 .245.675 2.061 1.5 4.036s1.5 3.976 1.5 4.448-4.569 1.657-10.153 2.635c-9.582 1.677-10.206 1.68-11.113.061-2.856-5.105-8.439-7.331-15.205-6.062-8.678 1.629-13.26 10.729-12.233 24.302.636 8.414 2.673 12.645 7.758 16.114 2.947 2.01 4.327 2.283 9.523 1.882 3.342-.257 7.73-1.252 9.75-2.211 3.302-1.567 3.673-2.136 3.673-5.629V102h-15.157l.425-7.91c.342-6.344.159-7.807-.921-7.393-.951.365-1.347-.396-1.347-2.59 0-2.473-.421-3.107-2.066-3.107-1.136 0-2.973-.486-4.083-1.08-1.935-1.036-1.945-1.158-.247-3.035.973-1.075 2.346-1.734 3.051-1.464.704.27 1.547.061 1.872-.465s2.538-.956 4.918-.956c3.667 0 4.869.558 7.884 3.663l3.558 3.662 7.807-1.748c4.293-.961 9.111-2.159 10.705-2.662 1.595-.503 5.42-.914 8.5-.913 6.83.002 34.131 3.994 50.989 7.455C248.701 84.856 254.689 86 255.195 86s.782-1.902.612-4.226l-.307-4.226-8.5-1.747c-10.277-2.113-38.744-6.358-52.5-7.829-5.5-.588-10.787-1.303-11.75-1.588s-1.75-.318-1.75-.074M114 79c0 1.1.173 2 .383 2s.619-.9.907-2c.287-1.1.115-2-.384-2-.498 0-.906.9-.906 2m67.244 4.664c-.691.279-1.028.876-.749 1.327.279.452-3.127.86-7.569.907s-8.83.511-9.751 1.03c-1.09.613 2.826.802 11.208.541 7.086-.221 13.16-.678 13.498-1.017.732-.731-2.799-3.487-4.322-3.373-.583.043-1.624.307-2.315.585m-72.498 11.479c-13.47 2.968-23.089 13.529-25.831 28.359-3.224 17.439 9.613 35.768 27.335 39.03l3.75.691V126h48v4.421c0 4.098.218 4.468 3 5.079 2.326.511 3 1.203 3 3.079V141h-30.822l-.339 6.002-.339 6.002 13.75-.002L164 153v16h-27l.032 13.25.031 13.25 2.134-2.863c8.273-11.099 32.817-26.898 42.05-27.068l3.747-.069.003-15.825.003-15.826-2.75.182c-1.512.099-6.238.133-10.5.075L164 134v-16h10.441c5.882 0 10.711-.437 11.059-1 .399-.646-3.656-1-11.441-1H162v9h-33.575l-4.666-4.75c-5.501-5.6-8.703-12.304-9.482-19.854-.31-3-.836-5.595-1.17-5.767s-2.296.059-4.361.514m36.555 11.207c-2.881 3.717-3.03 4.227-1.5 5.125 2.45 1.439 14.352 1.039 17.781-.597 1.935-.924 3.02-2.271 3.221-3.999.282-2.425-.04-2.653-4.622-3.261-2.709-.359-5.623-.386-6.475-.059-.853.327-2.372.16-3.378-.371-1.499-.792-2.404-.223-5.027 3.162M206 150.345v9.212l10.75-.859c9.885-.791 23.378-.047 35.58 1.96 3.754.617 3.824.572 3.5-2.264-.295-2.591-1.011-3.121-6.83-5.059-3.575-1.191-10.775-3.32-16-4.73a2414 2414 0 0 1-18.25-5.018l-8.75-2.453z"/><path fill="#1976D2" fill-opacity=".359" fill-rule="evenodd" d="M100.75 54.662c.688.278 1.813.278 2.5 0 .688-.277.125-.504-1.25-.504s-1.937.227-1.25.504m-8.481 1.031c.973.254 2.323.237 3-.037s-.119-.481-1.769-.461-2.204.244-1.231.498M182 67.317c0 .241.681 2.069 1.513 4.061 1.374 3.288 1.875 3.622 5.428 3.622 6.996 0 35.862 4.352 53.559 8.075 12.384 2.606 12.5 2.592 12.5-1.456 0-3.146-.296-3.455-4.25-4.436-2.338-.58-11.45-2.193-20.25-3.583-13.841-2.188-21.495-3.256-44.25-6.177-2.338-.3-4.25-.348-4.25-.106m-39.119 6.186c-4.096 2.226-6.268 7.861-6.71 17.41-.392 8.469.65 14.017 3.276 17.437.781 1.018 1.922 1.54 2.535 1.161.811-.501.791-1.08-.076-2.124-1.42-1.711-1.039-2.227 1.987-2.688 2.625-.401 4.263-2.534 3.607-4.699-.25-.825-.039-2.162.469-2.972.794-1.266 1.013-1.238 1.566.202.353.921.407 2.055.12 2.52-.288.465-.11 1.499.396 2.298.602.951.924-1.392.934-6.798.011-6.073-.315-8.184-1.235-8-.752.15-1.376-1.066-1.567-3.051-.229-2.382-.786-3.258-2-3.145-2.727.254-6.295-1.217-5.897-2.431.845-2.577 7.072-5.623 11.494-5.623 3.846 0 4.963.508 7.852 3.571 1.852 1.964 3.368 3.137 3.368 2.606s-1.306-2.363-2.901-4.071c-2.618-2.803-3.472-3.102-8.75-3.066-3.217.022-7.027.68-8.468 1.463M31.872 76.75c-1.243 1.586-1.208 1.621.378.378.962-.755 1.75-1.543 1.75-1.75 0-.823-.821-.294-2.128 1.372m144.941.933c.721.289 1.584.253 1.916-.079s-.258-.568-1.312-.525c-1.165.048-1.402.285-.604.604m-8.313.992c-3.25.719-4.813 1.346-4.393 1.763.216.215 2.868-.208 5.893-.939 4.886-1.18 3.515-1.934-1.5-.824m-1.75 7.987c.688.278 1.813.278 2.5 0 .688-.277.125-.504-1.25-.504s-1.937.227-1.25.504m16.519.031c.973.254 2.323.237 3-.037s-.119-.481-1.769-.461-2.204.244-1.231.498M164.787 106c.242 1.65.614 3 .826 3 .213 0 .387-1.35.387-3s-.372-3-.827-3-.628 1.35-.386 3m-50.777 9.75L114 126l8.25-.063c5.355-.042 7.537-.353 6.218-.887-3.175-1.288-9.422-8.754-12.055-14.41l-2.393-5.14zm24.24 9.993c4.262.188 11.238.188 15.5 0 4.262-.187.775-.341-7.75-.341s-12.012.154-7.75.341m30.24 12.507.01 3.25-15.75.275-15.75.276V153h28.081l-.291 8.25c-.262 7.446-.485 8.26-2.29 8.352-1.1.056-7.287.169-13.75.25L137 170v24.216l4.652-5.174c2.558-2.845 7.336-6.996 10.616-9.224s6.7-4.785 7.6-5.684c2.508-2.505 18.123-9.332 21.571-9.43l3.061-.088v-14.808c0-14.691-.018-14.809-2.25-14.808-1.238 0-2.25.45-2.25 1s-.477 1-1.059 1-.781-.45-.441-1c.382-.619-1.41-1-4.701-1h-5.318zM207 150.072V158l15.75.055c8.662.029 19.463.613 24 1.296l8.25 1.242v-2.321c0-3.07-.453-3.229-39.25-13.754l-8.75-2.374zM26.5 175c.995 1.1 2.035 2 2.31 2s-.315-.9-1.31-2-2.035-2-2.31-2 .315.9 1.31 2m77.25 25.662c.688.278 1.813.278 2.5 0 .688-.277.125-.504-1.25-.504s-1.937.227-1.25.504"/></svg>