<svg xmlns="http://www.w3.org/2000/svg" width="256" height="256"><path fill="#1976D2" fill-opacity=".016" fill-rule="evenodd" d="M0 128.004v128.004l128.25-.254 128.25-.254.254-127.75L257.008 0H0zm.485.496c0 70.4.119 99.053.265 63.672s.146-92.98 0-128S.485 58.1.485 128.5"/><path fill="#1976D2" fill-opacity=".151" fill-rule="evenodd" d="M100 32.537C57.526 39.544 20.39 65.035 6.297 96.856c-16.406 37.043-.411 79.332 40.045 105.872C65.81 215.499 96.337 225 117.902 225h8.801l-.101-96.75-.102-96.75-9.5-.1c-5.225-.055-12.875.456-17 1.137m67.093 8.529C141.008 45.71 127.454 71.535 135.635 101c2.819 10.151 10.173 19.191 18.8 23.11l4.065 1.846-12.25.022L134 126v81h12.433c10.998 0 12.486-.202 12.894-1.75.254-.963.397-7.926.318-15.475l-.145-13.726 15-.274 15-.275.289-8.75.289-8.75h-31.219l.321-6.999.32-6.998 17.359-.002 17.36-.001-.409-3.5-.408-3.5h16.183l-.042 31.75-.043 31.75 12.25.281 12.25.281V137h22v-21l-19.25.001-19.25.001.293-18.501.292-18.501H178v18h17v3.829c0 3.633-.265 3.953-5.169 6.25-3.799 1.779-6.782 2.4-11.25 2.34-13.571-.18-18.6-7.176-18.559-25.818.024-11.187 1.562-16.117 6.422-20.597 2.316-2.134 3.857-2.548 10.627-2.856 7.907-.359 7.923-.354 11.423 3.146C190.422 65.222 192 67.52 192 68.4c0 1.006.836 1.583 2.25 1.556 3.046-.061 21.698-3.57 22.329-4.202.73-.729-2.541-8.672-5.23-12.7-2.921-4.377-9.273-8.657-15.664-10.555-6.415-1.905-21.652-2.669-28.592-1.433m-47.28 44.617c.721.289 1.584.253 1.916-.079s-.258-.568-1.312-.525c-1.165.048-1.402.285-.604.604"/><path fill="#1976D2" fill-opacity=".479" fill-rule="evenodd" d="M108.009 32.09C63.663 36.356 22.126 62.788 7.086 96.309.451 111.096-1.357 129.81 2.431 144.5c11.179 43.364 58.592 76.771 113.819 80.197l9.75.605-.022-10.901-.023-10.901L121 200c-2.725-1.925-4.965-3.838-4.978-4.25S118.25 195 121 195c3.561 0 5-.393 5-1.366 0-1.071-1.489-1.26-6.875-.875l-6.874.492-12.203-9.215c-6.712-5.068-11.992-9.426-11.733-9.684.812-.812 23.876-3.288 30.935-3.321L126 171V85.721l-5.011.594c-8.144.964-17.042 5.854-23.665 13.004l-5.824 6.289-11.813-1.201c-6.497-.66-12.057-1.444-12.355-1.742s.297-3.353 1.323-6.788c1.682-5.634 2.474-6.725 8.079-11.134l6.214-4.888 12.776 2.012C112.328 84.481 126 85.551 126 84.235c0-1.333-3.487-2.2-9-2.24-4.285-.03-22.386-2.317-28.269-3.572-2.616-.558-2.136-1.071 8.692-9.281l11.462-8.691 8.046.953c7.248.858 10.341.535 8.878-.928-.288-.289-3.513-.804-7.167-1.145s-6.616-.893-6.585-1.226 3.167-2.855 6.969-5.605l6.911-5 .032-8.25L126 31l-4.75.136c-2.612.075-8.571.504-13.241.954M162 42.585c-6.79 1.795-15.366 7.534-19.624 13.133-5.386 7.08-7.652 14.411-8.147 26.35-.669 16.138 2.765 26.859 11.352 35.447 6.709 6.708 9.493 7.485 26.824 7.485h15.485l.305-4.75.305-4.75 14.75-.277 14.75-.276V79h-40v18h17.553l-.385 4.035c-.334 3.507-.882 4.289-4.185 5.973-8.369 4.27-18.867 3.788-24.46-1.122-5.132-4.506-7.023-10.541-7.023-22.413 0-8.779.317-10.642 2.544-14.969 3.05-5.929 6.982-8.464 14.165-9.133 6.622-.618 11.292 1.579 14.745 6.936 1.836 2.848 2.97 3.69 4.5 3.341 1.126-.256 6.413-1.231 11.75-2.167l9.704-1.701-1.88-4.949c-5.442-14.323-15.874-19.897-36.988-19.765-5.806.036-13.011.719-16.04 1.519M61.148 96.321c-4.549 3.468-5.074 4.191-3.5 4.81 1.019.401 3.036.76 4.483.799 2.313.061 2.773-.49 3.795-4.552.64-2.542 1.031-4.737.869-4.879s-2.703 1.578-5.647 3.822m-22.392 16.928L25.011 123.5l18.639.273c10.251.15 18.737.15 18.857 0s.475-4.415.788-9.477c.632-10.221 1.024-9.602-6.795-10.724-3.838-.55-4.558-.157-17.744 9.677m26.886-2.947c-.344 2.859-.629 7.11-.633 9.448L65 124h10.433c11.446 0 10.629.472 12.113-7 .382-1.925 1.327-4.737 2.1-6.25 1.127-2.206 1.148-2.75.103-2.75-1.661 0-17.413-1.844-20.866-2.443-2.486-.431-2.648-.194-3.241 4.745m123.785 7.027c-.28.731-.379 5.344-.218 10.25l.291 8.921 10.25.285 10.25.285v62.809l11.587.31c6.373.171 11.773.123 12-.106s.413-14.516.413-31.75V137h22v-21h-33.031c-26.552 0-33.132.261-33.542 1.329M134 166v40h25v-31h30v-17h-30v-14h34v-2.93c0-2.278-.501-3.002-2.25-3.25-1.993-.284-2.284-.976-2.55-6.07l-.3-5.75H134zM27.163 128.914c1.338 1.052 7.586 5.807 13.885 10.565l11.452 8.653 5.355-.505c2.946-.277 5.526-.675 5.735-.884s.094-4.737-.256-10.061L62.698 127H43.714c-18.879 0-18.97.011-16.551 1.914m38.212 6.809c.369 4.798 1.022 9.074 1.45 9.502.609.609 21.884-.98 22.922-1.712.136-.095-.391-2.163-1.172-4.593s-1.7-6.107-2.042-8.17l-.624-3.75H64.705zM79.5 147.13c-13.462 1.462-12.625.827-10.668 8.079 1.575 5.837 2.097 6.536 8.654 11.599 6.869 5.305 7.055 5.377 11.996 4.692 15.011-2.081 18.711-2.445 26.018-2.558l8-.124-5.5-1.746c-11.234-3.565-18.538-8.633-24.107-16.727-1.706-2.48-3.72-4.289-4.691-4.214-.936.072-5.302.521-9.702.999m-19.75 2.586c-1.513.229-2.75.741-2.75 1.137s2.25 2.4 5 4.453 5 3.473 5 3.156c0-2.601-2.471-9.431-3.369-9.312-.622.082-2.368.337-3.881.566"/><path fill="#1976D2" fill-opacity=".982" fill-rule="evenodd" d="M99.732 37.75c-2.998 3.163-6.832 7.325-8.521 9.25l-3.07 3.5-3.641-1.946c-2.003-1.07-4.975-2.929-6.604-4.131l-2.962-2.185 3.283-2.102c3.788-2.425 2.115-2.876-2.267-.61-1.622.839-2.952 1.176-2.955.75-.003-.427-1.015.385-2.25 1.803S65.35 47.18 61.5 50.262s-9.194 7.844-11.875 10.582l-4.874 4.978-4.551-1.951c-2.503-1.073-5.259-1.67-6.125-1.328-1.083.427-.055 1.204 3.288 2.486 2.674 1.025 5.059 2.06 5.299 2.299.24.24-1.564 3.302-4.008 6.804S32.746 83.425 30.956 87s-3.337 6.612-3.437 6.748-3.486-.876-7.525-2.25C11.99 88.776 11 88.591 11 89.817c0 .45 2.588 1.631 5.75 2.625 3.163.995 6.711 2.171 7.885 2.614l2.134.807-1.905 6.818c-1.048 3.751-2.187 10.082-2.531 14.069l-.626 7.25-9.104.152c-12.143.203-12.139.203-11.857 1.349.138.562 4.781 1.123 10.606 1.281l10.36.283.624 7.217c.343 3.97 1.481 10.289 2.53 14.043 1.342 4.801 1.57 6.924.77 7.159C19.203 157.372 9 161.451 9 162.134c0 1.317.947 1.111 9.938-2.171 4.577-1.67 8.421-2.908 8.543-2.75s1.385 2.866 2.807 6.018c1.421 3.153 4.863 9.124 7.648 13.27S43 184.222 43 184.446s-2.475 1.54-5.5 2.925-5.5 2.993-5.5 3.574c0 1.479.439 1.373 6-1.445 2.713-1.375 5.467-2.5 6.119-2.5s5.307 3.987 10.344 8.861c5.038 4.874 11.045 10.108 13.349 11.633 4.476 2.963 4.796 3.498 3.101 5.193-.687.687-.729 1.309-.113 1.689.535.331 1.505-.038 2.155-.821.996-1.201 2.133-.808 7.268 2.511 5.257 3.398 8.777 4.831 8.777 3.573 0-.198-2.951-2.269-6.557-4.601l-6.557-4.241 3.307-2.476c1.819-1.362 5.034-3.37 7.145-4.464l3.838-1.987 5.367 5.815c2.952 3.198 5.387 6.136 5.412 6.529.079 1.259 12.25 10.915 12.91 10.241.349-.356-1.907-2.967-5.014-5.802-7.65-6.978-16.031-16.553-15.393-17.586.751-1.215 14.627-4.742 24.542-6.238 5.158-.778 7.372-1.421 5.63-1.634-4.348-.532-18.861 1.633-26.253 3.916-3.614 1.116-6.657 1.885-6.764 1.709s-1.337-1.895-2.735-3.82c-3.716-5.118-11.211-18-10.745-18.467 1.299-1.298 22.596-4.64 33.047-5.185 6.776-.353 13.22-1.037 14.32-1.519 3.49-1.529-22.295.11-35.835 2.279-7.059 1.131-12.951 1.906-13.093 1.724-1.02-1.312-7.552-19.047-8.082-21.942l-.66-3.61 4.835-.608C84.119 146.105 92 145.76 92 146.781c0 1.867 10.127 12.209 14.416 14.723 4.894 2.868 10.628 4.961 15.834 5.78l3.75.59v-82.05l-4.25.704c-10.432 1.726-20.639 7.636-26.009 15.061l-3.241 4.48-5.75-.535c-13.438-1.249-17.576-1.808-18.754-2.537-1.585-.979.086-8.474 4.004-17.967 2.036-4.934 3.16-6.504 4.598-6.422 2.325.132 8.201 1.043 19.402 3.006 4.675.82 13.45 1.671 19.5 1.891 10.624.387 10.744.368 3.5-.539-19.533-2.445-31.021-4.208-36.708-5.633l-6.209-1.555 3.092-6.139c2.419-4.804 6.907-12.19 9.399-15.467.137-.181 3.42.815 7.296 2.213 9.324 3.363 30.13 6.674 30.13 4.794 0-.489-2.951-1.165-6.557-1.502C107.962 58.605 91 53.491 91 51.102c0-.533 3.6-4.772 8-9.421s8-8.728 8-9.066c0-1.716-2.345-.059-7.268 5.135m63.054 5.051c-12.506 3.385-21.877 12.21-26.228 24.699-.958 2.75-1.971 9.05-2.252 14-1.082 19.093 6.023 34.579 18.847 41.078 4.428 2.243 5.889 2.422 19.814 2.422H188v-10h30.046l-.273-17.75-.273-17.75-19.25-.272-19.25-.271V97h17v4.055c0 3.95-.145 4.122-5.571 6.606-4.7 2.152-6.694 2.494-12.754 2.188-12.725-.643-17.662-6.811-18.479-23.087-.935-18.61 5.173-27.765 18.522-27.76 6.216.002 11.312 2.62 13.669 7.022l1.886 3.523 11.364-1.947C211.515 66.421 216 65.192 216 64.486c0-.642-1.403-3.974-3.117-7.405-5.484-10.973-13.707-14.953-32.383-15.674-8.532-.329-12.506-.016-17.714 1.394m-98.324 7.61c-4.379 3.526-10.157 8.663-12.841 11.415l-4.879 5.004 13.295 4.295c11.21 3.622 13.43 4.067 14.155 2.835.473-.803 3.497-5.96 6.721-11.46l5.862-10-6.637-4.224c-3.651-2.323-6.88-4.236-7.176-4.25s-4.121 2.859-8.5 6.385m-23.788 24.46c-4.968 6.748-11.412 18.724-10.543 19.593.643.643 25.103 6.906 31.09 7.96 3.477.613 3.759.473 4.309-2.134.323-1.535 2.037-7.317 3.809-12.85l3.221-10.059-13.039-4.191C52.35 70.886 46.148 69 45.739 69s-2.688 2.642-5.065 5.871m-14.066 28.638c-.899 3.581-1.92 9.881-2.268 14L23.707 125h38.994l.635-8.958c.35-4.928.755-9.516.9-10.197.177-.829-2.874-1.792-9.236-2.914-5.225-.921-12.904-2.633-17.064-3.803S29.893 97 29.308 97s-1.801 2.929-2.7 6.509m38.978 5.62c-.314 2.404-.688 6.846-.829 9.871l-.257 5.5 11.25.283 11.25.283.033-2.783c.018-1.531.903-5.258 1.967-8.283s1.949-5.771 1.967-6.101-3.68-.893-8.217-1.248-10.127-.926-12.421-1.269l-4.17-.624zM190 126.5v9.5h20v64h24v-64h22v-19h-66zm-165.72 6.294c.877 10.462 3.733 21.208 5.634 21.194.872-.006 4.061-.683 7.086-1.504 3.025-.822 10.412-2.39 16.415-3.487s11.009-2.107 11.124-2.245c.115-.139-.151-2.727-.592-5.752s-.834-7.637-.874-10.25L63 126H23.71zm40.6-6.341c-.554.554.799 18.218 1.48 19.32.432.699 12.587-.082 21.325-1.37l3.185-.469-1.417-3.393c-.78-1.867-1.713-5.902-2.073-8.967L86.725 126H76.029c-5.883 0-10.899.204-11.149.453M134 166.5V206h25v-31h30l.001-8.25.002-8.25-15.002.3-15.001.3V144h34v-3c0-2.533-.389-3-2.5-3-2.364 0-2.5-.3-2.5-5.5V127h-54zm-77-16.54c-1.375.467-8.013 2.093-14.75 3.614S30 156.756 30 157.267c0 3.113 14.456 26.614 16.042 26.078.252-.085 6.561-2.077 14.02-4.426l13.563-4.272-2.47-6.074c-1.359-3.34-3.213-8.998-4.121-12.573-1.539-6.066-1.846-6.513-4.592-6.694-1.618-.107-4.067.187-5.442.654m9 29.176c-9.717 2.913-18 6.024-18 6.761 0 1.058 14.04 14.483 19.84 18.971 5.806 4.493 7.266 4.914 9.155 2.638.682-.821 3.634-2.864 6.562-4.538l5.322-3.045-4.317-6.212c-2.374-3.416-5.505-8.574-6.956-11.461s-3.195-5.208-3.873-5.156c-.678.051-4.158.97-7.733 2.042"/></svg>